<?xml version="1.0" encoding="UTF-8" standalone="no"?>
<!-- Created with Inkscape (http://www.inkscape.org/) -->

<svg
   xmlns:dc="http://purl.org/dc/elements/1.1/"
   xmlns:cc="http://creativecommons.org/ns#"
   xmlns:rdf="http://www.w3.org/1999/02/22-rdf-syntax-ns#"
   xmlns:svg="http://www.w3.org/2000/svg"
   xmlns="http://www.w3.org/2000/svg"
   xmlns:sodipodi="http://sodipodi.sourceforge.net/DTD/sodipodi-0.dtd"
   xmlns:inkscape="http://www.inkscape.org/namespaces/inkscape"
   width="300mm"
   height="300mm"
   viewBox="0 0 300 300"
   version="1.1"
   id="svg8"
   inkscape:version="0.92.1 r15371"
   sodipodi:docname="vanguard_1.svg">
  <defs
     id="defs2" />
  <sodipodi:namedview
     id="base"
     pagecolor="#ffffff"
     bordercolor="#666666"
     borderopacity="1.0"
     inkscape:pageopacity="0.0"
     inkscape:pageshadow="2"
     inkscape:zoom="0.35"
     inkscape:cx="598.40952"
     inkscape:cy="300.7378"
     inkscape:document-units="mm"
     inkscape:current-layer="layer1"
     showgrid="false"
     inkscape:window-width="2560"
     inkscape:window-height="1365"
     inkscape:window-x="-9"
     inkscape:window-y="-9"
     inkscape:window-maximized="1" />
  <metadata
     id="metadata5">
    <rdf:RDF>
      <cc:Work
         rdf:about="">
        <dc:format>image/svg+xml</dc:format>
        <dc:type
           rdf:resource="http://purl.org/dc/dcmitype/StillImage" />
        <dc:title></dc:title>
      </cc:Work>
    </rdf:RDF>
  </metadata>
  <g
     inkscape:label="Layer 1"
     inkscape:groupmode="layer"
     id="layer1"
     transform="translate(0,3)">
    <g
       id="g4496"
       transform="matrix(2.3052972,0,0,2.3052972,-129.70939,-123.30637)">
      <path
         style="fill:#79d7f0;fill-opacity:1;stroke-width:0.04618182"
         d="m 161.51536,165.00248 c -1.06592,-0.69479 -1.79762,-1.7647 -2.69366,-2.64764 -1.23689,-1.40463 -2.46469,-2.81754 -3.73869,-4.18913 -0.96566,-1.09191 -1.83462,-2.26474 -2.78104,-3.37323 -1.34353,-1.75643 -2.72753,-3.48676 -4.26597,-5.07823 -0.85921,-0.95815 -1.60739,-2.0081 -2.41468,-3.00929 -1.17559,-1.58356 -2.40247,-3.12896 -3.71695,-4.60002 -1.27581,-1.48023 -2.54914,-2.96311 -3.7783,-4.48203 -0.90703,-0.97738 -1.83087,-1.93912 -2.69983,-2.9512 -0.67061,-0.7094 -1.33809,-1.42197 -1.96107,-2.17344 -0.58593,-0.2204 -0.69796,-0.85595 -1.1066,-1.25378 -0.31067,-0.19252 -0.74936,0.0997 -1.10388,0.1148 0.27537,0.81754 0.76076,1.55526 1.17908,2.3078 0.88185,1.39662 1.72653,2.8177 2.46738,4.29469 0.7258,1.30712 1.4148,2.63533 2.21576,3.89892 0.50843,0.9531 1.03008,1.8989 1.62359,2.80272 0.68592,1.14423 1.32314,2.31685 2.02588,3.45116 0.98944,1.71893 2.16674,3.31885 3.23378,4.98812 0.66563,1.07265 1.22037,2.21132 1.94319,3.24924 0.74736,1.2034 1.33758,2.49361 2.01605,3.73448 0.22839,0.53062 0.4528,1.09735 0.42558,1.68398 -0.23328,0.4955 -0.91275,0.63826 -1.41054,0.69841 -0.83522,-0.45838 -1.13303,-1.42847 -1.56599,-2.21462 -0.54828,-0.99397 -1.11804,-1.97563 -1.6585,-2.97403 -0.76611,-1.36682 -1.66532,-2.65295 -2.40808,-4.03328 -0.44723,-0.73506 -0.81917,-1.51722 -1.31017,-2.22375 -0.2347,-0.8425 -0.8513,-1.50587 -1.27544,-2.25532 -1.25697,-2.037 -2.50252,-4.08145 -3.72145,-6.14129 -1.44644,-2.22686 -2.58746,-4.63296 -3.98121,-6.89189 -0.69076,-1.14844 -1.26975,-2.3726 -2.0932,-3.43542 -0.32927,0.31799 -0.84779,0.76089 -1.42193,0.77021 -0.93298,0.2898 -1.85565,0.63419 -2.83253,0.74737 -0.8619,0.1924 -1.75397,0.21181 -2.61318,0.42713 -0.54815,0.093 -1.02434,-0.16238 -1.58725,-0.018 -0.87058,-0.023 -1.70534,-0.31954 -2.57676,-0.34832 -0.62399,-0.0854 -1.17451,-0.45042 -1.80914,-0.50124 -1.05425,-0.38679 -2.01307,-0.99713 -3.06664,-1.38924 -0.56435,-0.23415 -1.06813,-0.65639 -1.70392,-0.66847 -0.78531,-0.12409 -1.42343,-0.74771 -2.24256,-0.70225 -0.57017,0.0642 -1.02392,-0.28793 -1.51293,-0.49204 -0.45137,-0.0802 -0.76947,-0.67322 -1.24666,-0.21969 -0.68048,0.57799 -1.3764,1.13996 -2.08005,1.69114 -0.9857,0.79334 -2.03117,1.5095 -3.00509,2.31862 -1.11455,0.83572 -2.280643,1.60075 -3.407135,2.42075 -1.117666,0.76241 -2.267594,1.47849 -3.325689,2.32519 -1.940891,1.40833 -3.833728,2.88275 -5.797232,4.25988 -1.252958,0.75057 -2.403344,1.653 -3.630327,2.44325 -1.535978,1.08391 -3.032296,2.22366 -4.554103,3.32751 -0.879082,0.66109 -1.755638,1.35193 -2.741614,1.84487 -0.662673,0.29251 -1.196403,0.82116 -1.788575,1.23371 -1.31157,0.96949 -2.589394,1.98316 -3.869543,2.99277 -1.540698,1.05034 -3.083875,2.09814 -4.619095,3.15693 -0.907559,0.66101 -1.746174,1.41526 -2.701081,2.01227 -1.224158,0.85581 -2.452248,1.70808 -3.748831,2.45182 -0.881089,0.52601 -1.67868,1.17501 -2.52799,1.74613 -0.473087,0.35198 -1.259566,0.19153 -1.311595,-0.46603 0.0472,-0.60213 0.62996,-0.96176 1.046125,-1.32711 1.005566,-0.79285 2.114591,-1.44047 3.133282,-2.21627 1.803187,-1.30172 3.736477,-2.41674 5.494834,-3.78074 0.630948,-0.43831 1.276859,-0.85162 1.932235,-1.25094 1.173552,-0.80415 2.188091,-1.81117 3.351704,-2.62938 0.950075,-0.79322 1.9959,-1.45373 3.028698,-2.1309 0.774255,-0.57906 1.587798,-1.10696 2.298029,-1.76782 0.890432,-0.6611 1.82054,-1.26825 2.690004,-1.95854 1.14014,-0.82006 2.282596,-1.63634 3.443768,-2.42646 1.513384,-1.11085 2.800383,-2.51018 4.401203,-3.50707 0.976131,-0.62353 1.917005,-1.29874 2.820772,-2.02227 1.466609,-0.95566 3.074484,-1.68785 4.467861,-2.75599 1.491272,-1.05948 3.039442,-2.03597 4.542607,-3.07715 0.879208,-0.69061 1.877018,-1.23627 2.634328,-2.07282 0.617,-0.56962 1.25038,-1.12934 1.80407,-1.76134 0.0785,-0.6128 0.91425,-0.59554 1.25064,-1.07813 0.12596,-0.16768 0.42148,-0.26395 0.4262,-0.48441 -0.0274,-1.40736 -0.058,-2.82826 -0.42217,-4.19681 -0.14589,-0.68022 -0.47908,-1.30174 -0.61996,-1.9856 -0.39264,-1.27595 -0.45627,-2.62048 -0.55234,-3.94281 -0.30594,-0.44938 0.17872,-0.9449 0.0337,-1.48226 0.0969,-0.9962 0.3612,-1.97139 0.41559,-2.97373 0.29226,-0.66046 -0.58666,-0.8372 -0.96448,-1.17005 -0.30635,-0.42339 -1.44901,-0.15054 -1.12468,-0.93184 0.25905,-0.53338 0.58002,-1.04947 0.97448,-1.49694 0.50479,-0.74996 0.87617,-1.58353 1.43372,-2.29962 0.32242,-0.67193 0.87594,-1.23248 1.04973,-1.97039 0.22274,-0.53733 0.73979,-0.87481 0.99079,-1.405 0.2476,-0.24568 0.0107,-0.58791 0.20439,-0.81445 -1.55469,-1.92001 -3.38496,-3.597333 -4.94628,-5.5129 -1.46887,-1.694215 -3.116646,-3.219095 -4.680475,-4.822469 -1.213803,-1.332608 -2.272131,-2.797119 -3.472595,-4.142009 -1.782859,-2.114413 -3.78414,-4.029346 -5.62368,-6.092946 -1.746899,-1.86369 -3.394556,-3.816991 -5.032245,-5.7759 -1.198153,-1.399353 -2.483398,-2.722844 -3.640917,-4.157153 -0.541266,-0.548014 -1.018221,-1.149931 -1.481755,-1.76357 -0.878915,-1.075719 -1.703159,-2.202734 -2.687988,-3.186677 -0.517076,-0.323204 -0.732009,-0.824094 -1.012555,-1.334757 -0.338714,-0.455169 -0.270597,-1.05654 0.164305,-1.422971 0.109737,-0.212555 0.296751,-0.238101 0.51368,-0.191256 0.734982,-0.04302 1.203862,0.601689 1.675702,1.058272 1.162441,1.251012 2.216696,2.597814 3.382786,3.846193 1.421885,1.518681 2.689893,3.170489 4.05225,4.740295 1.605605,1.736179 3.135003,3.54285 4.808773,5.215426 1.645161,1.648239 2.852917,3.671331 4.510896,5.308457 0.807417,0.937134 1.686898,1.80612 2.581858,2.659076 1.377643,1.321717 2.634067,2.760101 3.85208,4.227945 1.58519,1.761355 3.14276,3.547217 4.6732,5.356294 0.90592,1.053428 1.80474,2.112592 2.73757,3.142468 0.87791,1.008802 1.74002,2.036312 2.68971,2.978502 0.50476,0.39881 1.19135,0.26744 1.78262,0.22193 0.22748,-0.45094 -0.30178,-1.0336 -0.46737,-1.48905 -1.3718,-2.424634 -2.78659,-4.835471 -4.4592,-7.067704 -0.94956,-1.373968 -1.46145,-2.982497 -2.32394,-4.405967 -0.9462,-1.626885 -1.95008,-3.221131 -2.81678,-4.893488 -0.59334,-1.107658 -1.26291,-2.172384 -1.84671,-3.285163 -0.485393,-0.823361 -1.224159,-1.664068 -1.031211,-2.693138 0.02037,-0.666545 0.845701,-0.815916 1.246171,-0.37404 0.43713,0.416772 0.62631,1.015491 0.97889,1.497654 0.43549,0.760258 0.82097,1.559507 1.43003,2.202386 0.55722,0.800897 0.91634,1.720117 1.39666,2.567327 0.78262,1.399458 1.56965,2.798081 2.38293,4.18003 0.90599,1.402558 1.85036,2.781982 2.63974,4.256008 0.66275,1.213877 1.36998,2.402596 1.9996,3.634389 0.65427,1.131043 1.21789,2.314402 1.90429,3.425976 0.19076,0.36839 1.02275,0.31159 1.11676,-0.0732 6.4e-4,-1.367182 0.0449,-2.736647 0.0102,-4.102032 -0.24563,-0.508932 -0.7099,-1.067992 -0.47497,-1.666815 0.28581,-0.487866 0.49117,-0.992113 0.28892,-1.559637 -0.15584,-0.935274 -0.28452,-1.877526 -0.28752,-2.828776 0.11369,-0.685636 -0.85001,-0.710724 -0.85119,-1.359499 -0.18304,-0.608407 0.3295,-1.135286 0.93489,-1.111246 0.34086,-0.01 0.0236,-0.575612 0.10847,-0.800059 -0.0652,-0.209833 0.0513,-0.57622 -0.10834,-0.704833 -0.67513,-0.17456 -1.40846,-0.243826 -2.00962,-0.619947 -0.34987,-0.387064 -0.10156,-1.172298 0.44101,-1.270194 2.66922,-0.911159 5.52115,-0.962848 8.30774,-1.149338 2.65609,-0.08644 5.31918,0.12271 7.94262,0.536021 0.51706,0.137859 1.11907,0.249259 1.49629,0.648582 0.0967,0.611361 -0.39017,1.158032 -0.93347,1.374213 -0.47884,0.195194 -1.10628,0.336273 -1.25439,0.88758 -0.16315,0.40624 0.16655,0.370501 0.45345,0.504978 0.47286,0.437402 0.31376,1.189871 0.28497,1.765881 -0.018,0.633647 -0.45258,1.220923 -1.12136,1.229855 0.0855,0.800751 -0.0725,1.64483 0.0158,2.458291 0.0283,0.488198 0.14787,0.863072 0.60616,1.089639 0.39414,0.461063 0.35542,1.209872 0.0278,1.696844 -0.4118,0.34786 -0.7137,0.804759 -0.4096,1.334642 0.0554,1.101088 0.0302,2.205976 0.10565,3.30689 0.73222,0.0543 1.44887,0.27641 2.05281,0.70104 0.57909,0.21163 1.14729,0.5071 1.25825,1.18592 0.0761,0.21012 0.14925,0.42129 0.22396,0.6319 0.75806,-0.01 1.52532,-0.0831 2.27805,-0.004 0.45693,0.44263 0.58986,1.13161 0.92523,1.66872 0.27301,0.42973 0.47385,1.51314 1.06892,0.7646 1.22132,-0.9051 2.56952,-1.64601 3.66088,-2.71878 1.19992,-1.09823 2.58833,-1.95753 3.84973,-2.978431 1.66579,-1.149563 3.26967,-2.385256 4.89913,-3.584926 1.52184,-1.201978 3.11671,-2.312308 4.57145,-3.597651 1.27288,-1.027715 2.39717,-2.226811 3.70901,-3.20733 1.45345,-1.223511 2.94746,-2.398911 4.39334,-3.631915 1.51206,-1.184837 3.1206,-2.248058 4.55091,-3.534999 0.93314,-0.736417 1.81314,-1.540784 2.81694,-2.184347 1.05382,-0.735155 2.12694,-1.442351 3.20876,-2.134242 1.33079,-0.978352 2.68659,-1.923574 4.10733,-2.767507 0.96059,-0.60489 1.71481,-1.483717 2.71416,-2.034099 0.66794,-0.481701 1.20303,-1.121194 1.87277,-1.602827 0.80985,-0.715876 1.55134,-1.523991 2.50115,-2.06357 0.64812,-0.383572 1.27706,-0.799957 1.91822,-1.193091 0.3308,0.143139 0.59915,-0.238242 0.85644,0.162803 0.62179,-0.167387 0.65149,0.700146 0.44564,1.08624 -0.20176,0.473484 -0.87337,0.640872 -1.25359,0.989405 -0.79453,0.548461 -1.55916,1.142058 -2.30282,1.757225 -0.53685,0.520024 -1.08269,1.041201 -1.75718,1.380571 -0.76869,0.54079 -1.36365,1.291441 -2.13467,1.833182 -1.72142,1.361156 -3.58604,2.522164 -5.37371,3.790651 -1.68027,1.24129 -3.35812,2.486014 -5.03742,3.728275 -1.63901,1.160899 -3.27102,2.338117 -4.80825,3.632592 -1.71271,1.555884 -3.60462,2.890306 -5.43218,4.303541 -1.26802,1.049481 -2.62903,1.978828 -3.92198,2.996958 -1.09728,0.827027 -2.20528,1.64025 -3.29768,2.473742 -1.19803,0.999266 -2.39962,1.996246 -3.63959,2.943364 -1.9783,1.517246 -4.065,2.885606 -6.0352,4.413396 -1.34612,0.98846 -2.68143,1.99431 -3.91658,3.12114 -0.33925,0.24697 -0.61549,0.47909 -0.25566,0.83656 -0.002,0.27973 -0.46673,0.48988 -0.36303,0.73714 0.47696,0.74837 0.74553,1.60284 1.16178,2.3832 0.5064,1.34885 0.76583,2.77679 1.01431,4.19208 0.28788,1.73478 0.13676,3.51016 -0.18258,5.22938 -0.29314,0.64053 0.91176,0.64257 0.77104,1.36133 0.14354,0.4586 -0.48989,0.73588 -0.53758,0.87948 0.52334,0.38905 1.17002,0.66142 1.55556,1.20347 0.0594,0.51536 0.0831,1.07546 -0.2045,1.54359 -0.39529,0.51682 -0.48956,1.21997 -0.97534,1.66738 -0.46929,0.27227 -0.70555,0.84543 -1.05639,1.25776 -0.26343,0.27405 -0.29944,0.54296 0.0111,0.75526 -0.60635,-0.19424 -0.92594,0.57367 -1.32705,0.92934 -0.33473,0.60993 -0.78458,1.14647 -1.09719,1.7704 -0.20473,0.26155 -0.37521,0.57554 0.0876,0.61042 0.77028,0.7055 1.2845,1.6414 2.00786,2.39351 1.33691,1.40694 2.29412,3.12312 3.65291,4.51103 1.23519,1.41049 2.3392,2.93164 3.61739,4.30579 0.98829,1.07955 2.01716,2.12229 2.93938,3.26076 1.22432,1.47099 2.35074,3.01989 3.57858,4.48825 1.06921,1.36847 2.15476,2.72641 3.36448,3.97498 1.08929,1.11963 1.96737,2.41916 3.03914,3.55481 1.48013,1.62035 2.94619,3.2545 4.37139,4.92304 0.30861,0.46349 0.64242,1.13885 0.19823,1.62895 -0.23307,0.18635 -0.57665,0.21021 -0.8226,0.0353 z M 184.9252,68.251796 c -0.17994,-0.114877 -0.11821,0.376891 0,0 z"
         id="path4502"
         inkscape:connector-curvature="0" />
      <path
         style="fill:#b3b0cf;fill-opacity:1;stroke-width:0.04618182"
         d="m 161.51536,165.00248 c -1.06592,-0.69479 -1.79762,-1.7647 -2.69366,-2.64764 -1.23689,-1.40463 -2.46469,-2.81754 -3.73869,-4.18913 -0.96566,-1.09191 -1.83462,-2.26474 -2.78104,-3.37323 -1.34353,-1.75643 -2.72753,-3.48676 -4.26597,-5.07823 -0.85921,-0.95815 -1.60739,-2.0081 -2.41468,-3.00929 -1.17559,-1.58356 -2.40247,-3.12896 -3.71695,-4.60002 -1.27581,-1.48023 -2.54914,-2.96311 -3.7783,-4.48203 -0.90703,-0.97738 -1.83087,-1.93912 -2.69983,-2.9512 -0.67061,-0.7094 -1.33809,-1.42197 -1.96107,-2.17344 -0.58593,-0.2204 -0.69796,-0.85595 -1.1066,-1.25378 -0.31067,-0.19252 -0.74936,0.0997 -1.10388,0.1148 0.27537,0.81754 0.76076,1.55526 1.17908,2.3078 0.88185,1.39662 1.72653,2.8177 2.46738,4.29469 0.7258,1.30712 1.4148,2.63533 2.21576,3.89892 0.50843,0.9531 1.03008,1.8989 1.62359,2.80272 0.68592,1.14423 1.32314,2.31685 2.02588,3.45116 0.98944,1.71893 2.16674,3.31885 3.23378,4.98812 0.66563,1.07265 1.22037,2.21132 1.94319,3.24924 0.74736,1.2034 1.33758,2.49361 2.01605,3.73448 0.22839,0.53062 0.4528,1.09735 0.42558,1.68398 -0.23328,0.4955 -0.91275,0.63826 -1.41054,0.69841 -0.83522,-0.45838 -1.13303,-1.42847 -1.56599,-2.21462 -0.54828,-0.99397 -1.11804,-1.97563 -1.6585,-2.97403 -0.76611,-1.36682 -1.66532,-2.65295 -2.40808,-4.03328 -0.44723,-0.73506 -0.81917,-1.51722 -1.31017,-2.22375 -0.2347,-0.8425 -0.8513,-1.50587 -1.27544,-2.25532 -1.25697,-2.037 -2.50252,-4.08145 -3.72145,-6.14129 -1.44644,-2.22686 -2.58746,-4.63296 -3.98121,-6.89189 -0.69076,-1.14844 -1.26975,-2.3726 -2.0932,-3.43542 -0.32927,0.31799 -0.84779,0.76089 -1.42193,0.77021 -0.93298,0.2898 -1.85565,0.63419 -2.83253,0.74737 -0.8619,0.1924 -1.75397,0.21181 -2.61318,0.42713 -0.54815,0.093 -1.02434,-0.16238 -1.58725,-0.018 -0.87058,-0.023 -1.70534,-0.31954 -2.57676,-0.34832 -0.62399,-0.0854 -1.17451,-0.45042 -1.80914,-0.50124 -1.05425,-0.38679 -2.01307,-0.99713 -3.06664,-1.38924 -0.56435,-0.23415 -1.06813,-0.65639 -1.70392,-0.66847 -0.78531,-0.12409 -1.42343,-0.74771 -2.24256,-0.70225 -0.57017,0.0642 -1.02392,-0.28793 -1.51293,-0.49204 -0.45137,-0.0802 -0.76947,-0.67322 -1.24666,-0.21969 -0.68048,0.57799 -1.3764,1.13996 -2.08005,1.69114 -0.9857,0.79334 -2.03117,1.5095 -3.00509,2.31862 -1.11455,0.83572 -2.280643,1.60075 -3.407135,2.42075 -1.117666,0.76241 -2.267594,1.47849 -3.325689,2.32519 -1.940891,1.40833 -3.833728,2.88275 -5.797232,4.25988 -1.252958,0.75057 -2.403344,1.653 -3.630327,2.44325 -1.535978,1.08391 -3.032296,2.22366 -4.554103,3.32751 -0.879082,0.66109 -1.755638,1.35193 -2.741614,1.84487 -0.662673,0.29251 -1.196403,0.82116 -1.788575,1.23371 -1.31157,0.96949 -2.589394,1.98316 -3.869543,2.99277 -1.540698,1.05034 -3.083875,2.09814 -4.619095,3.15693 -0.907559,0.66101 -1.746174,1.41526 -2.701081,2.01227 -1.224158,0.85581 -2.452248,1.70808 -3.748831,2.45182 -0.881089,0.52601 -1.67868,1.17501 -2.52799,1.74613 -0.473087,0.35198 -1.259566,0.19153 -1.311595,-0.46603 0.0472,-0.60213 0.62996,-0.96176 1.046125,-1.32711 1.005566,-0.79285 2.114591,-1.44047 3.133282,-2.21627 1.803187,-1.30172 3.736477,-2.41674 5.494834,-3.78074 0.630948,-0.43831 1.276859,-0.85162 1.932235,-1.25094 1.173552,-0.80415 2.188091,-1.81117 3.351704,-2.62938 0.950075,-0.79322 1.9959,-1.45373 3.028698,-2.1309 0.774255,-0.57906 1.587798,-1.10696 2.298029,-1.76782 0.890432,-0.6611 1.82054,-1.26825 2.690004,-1.95854 1.14014,-0.82006 2.282596,-1.63634 3.443768,-2.42646 1.513384,-1.11085 2.800383,-2.51018 4.401203,-3.50707 0.976131,-0.62353 1.917005,-1.29874 2.820772,-2.02227 1.466609,-0.95566 3.074484,-1.68785 4.467861,-2.75599 1.491272,-1.05948 3.039442,-2.03597 4.542607,-3.07715 0.879208,-0.69061 1.877018,-1.23627 2.634328,-2.07282 0.617,-0.56962 1.25038,-1.12934 1.80407,-1.76134 0.0785,-0.6128 0.91425,-0.59554 1.25064,-1.07813 0.12596,-0.16768 0.42148,-0.26395 0.4262,-0.48441 -0.0274,-1.40736 -0.058,-2.82826 -0.42217,-4.19681 -0.14589,-0.68022 -0.47908,-1.30174 -0.61996,-1.9856 -0.39264,-1.27595 -0.45627,-2.62048 -0.55234,-3.94281 -0.30594,-0.44938 0.17872,-0.9449 0.0337,-1.48226 0.0969,-0.9962 0.3612,-1.97139 0.41559,-2.97373 0.29226,-0.66046 -0.58666,-0.8372 -0.96448,-1.17005 -0.30635,-0.42339 -1.44901,-0.15054 -1.12468,-0.93184 0.25905,-0.53338 0.58002,-1.04947 0.97448,-1.49694 0.50479,-0.74996 0.87617,-1.58353 1.43372,-2.29962 0.32242,-0.67193 0.87594,-1.23248 1.04973,-1.97039 0.22274,-0.53733 0.73979,-0.87481 0.99079,-1.405 0.2476,-0.24568 0.0107,-0.58791 0.20439,-0.81445 -1.55469,-1.92001 -3.38496,-3.597333 -4.94628,-5.5129 -1.46887,-1.694215 -3.116646,-3.219095 -4.680475,-4.822469 -1.213803,-1.332608 -2.272131,-2.797119 -3.472595,-4.142009 -1.782859,-2.114413 -3.78414,-4.029346 -5.62368,-6.092946 -1.746899,-1.86369 -3.394556,-3.816991 -5.032245,-5.7759 -1.198153,-1.399353 -2.483398,-2.722844 -3.640917,-4.157153 -0.541266,-0.548014 -1.018221,-1.149931 -1.481755,-1.76357 -0.878915,-1.075719 -1.703159,-2.202734 -2.687988,-3.186677 -0.517076,-0.323204 -0.732009,-0.824094 -1.012555,-1.334757 -0.338714,-0.455169 -0.270597,-1.05654 0.164305,-1.422971 0.109737,-0.212555 0.296751,-0.238101 0.51368,-0.191256 0.734982,-0.04302 1.203862,0.601689 1.675702,1.058272 1.162441,1.251012 2.216696,2.597814 3.382786,3.846193 1.421885,1.518681 2.689893,3.170489 4.05225,4.740295 1.605605,1.736179 3.135003,3.54285 4.808773,5.215426 1.645161,1.648239 2.852917,3.671331 4.510896,5.308457 0.807417,0.937134 1.686898,1.80612 2.581858,2.659076 1.377643,1.321717 2.634067,2.760101 3.85208,4.227945 1.58519,1.761355 3.14276,3.547217 4.6732,5.356294 0.90592,1.053428 1.80474,2.112592 2.73757,3.142468 0.87791,1.008802 1.74002,2.036312 2.68971,2.978502 0.50476,0.39881 1.19135,0.26744 1.78262,0.22193 0.22748,-0.45094 -0.30178,-1.0336 -0.46737,-1.48905 -1.3718,-2.424634 -2.78659,-4.835471 -4.4592,-7.067704 -0.94956,-1.373968 -1.46145,-2.982497 -2.32394,-4.405967 -0.9462,-1.626885 -1.95008,-3.221131 -2.81678,-4.893488 -0.59334,-1.107658 -1.26291,-2.172384 -1.84671,-3.285163 -0.485393,-0.823361 -1.224159,-1.664068 -1.031211,-2.693138 0.02037,-0.666545 0.845701,-0.815916 1.246171,-0.37404 0.43713,0.416772 0.62631,1.015491 0.97889,1.497654 0.43549,0.760258 0.82097,1.559507 1.43003,2.202386 0.55722,0.800897 0.91634,1.720117 1.39666,2.567327 0.78262,1.399458 1.56965,2.798081 2.38293,4.18003 0.90599,1.402558 1.85036,2.781982 2.63974,4.256008 0.66275,1.213877 1.36998,2.402596 1.9996,3.634389 0.65427,1.131043 1.21789,2.314402 1.90429,3.425976 0.19076,0.36839 1.02275,0.31159 1.11676,-0.0732 6.4e-4,-1.367182 0.0449,-2.736647 0.0102,-4.102032 -0.24563,-0.508932 -0.7099,-1.067992 -0.47497,-1.666815 0.28581,-0.487866 0.49117,-0.992113 0.28892,-1.559637 -0.15584,-0.935274 -0.28452,-1.877526 -0.28752,-2.828776 0.11369,-0.685636 -0.85001,-0.710724 -0.85119,-1.359499 -0.18304,-0.608407 0.3295,-1.135286 0.93489,-1.111246 0.34086,-0.01 0.0236,-0.575612 0.10847,-0.800059 -0.0652,-0.209833 0.0513,-0.57622 -0.10834,-0.704833 -0.67513,-0.17456 -1.40846,-0.243826 -2.00962,-0.619947 -0.34987,-0.387064 -0.10156,-1.172298 0.44101,-1.270194 2.66922,-0.911159 5.52115,-0.962848 8.30774,-1.149338 2.65609,-0.08644 5.31918,0.12271 7.94262,0.536021 0.51706,0.137859 1.11907,0.249259 1.49629,0.648582 0.0967,0.611361 -0.39017,1.158032 -0.93347,1.374213 -0.47884,0.195194 -1.10628,0.336273 -1.25439,0.88758 -0.16315,0.40624 0.16655,0.370501 0.45345,0.504978 0.47286,0.437402 0.31376,1.189871 0.28497,1.765881 -0.018,0.633647 -0.45258,1.220923 -1.12136,1.229855 0.0855,0.800751 -0.0725,1.64483 0.0158,2.458291 0.0283,0.488198 0.14787,0.863072 0.60616,1.089639 0.39414,0.461063 0.35542,1.209872 0.0278,1.696844 -0.4118,0.34786 -0.7137,0.804759 -0.4096,1.334642 0.0554,1.101088 0.0302,2.205976 0.10565,3.30689 0.73222,0.0543 1.44887,0.27641 2.05281,0.70104 0.57909,0.21163 1.14729,0.5071 1.25825,1.18592 0.0761,0.21012 0.14925,0.42129 0.22396,0.6319 0.75806,-0.01 1.52532,-0.0831 2.27805,-0.004 0.45693,0.44263 0.58986,1.13161 0.92523,1.66872 0.27301,0.42973 0.47385,1.51314 1.06892,0.7646 1.22132,-0.9051 2.56952,-1.64601 3.66088,-2.71878 1.19992,-1.09823 2.58833,-1.95753 3.84973,-2.978431 1.66579,-1.149563 3.26967,-2.385256 4.89913,-3.584926 1.52184,-1.201978 3.11671,-2.312308 4.57145,-3.597651 1.27288,-1.027715 2.39717,-2.226811 3.70901,-3.20733 1.45345,-1.223511 2.94746,-2.398911 4.39334,-3.631915 1.51206,-1.184837 3.1206,-2.248058 4.55091,-3.534999 0.93314,-0.736417 1.81314,-1.540784 2.81694,-2.184347 1.05382,-0.735155 2.12694,-1.442351 3.20876,-2.134242 1.33079,-0.978352 2.68659,-1.923574 4.10733,-2.767507 0.96059,-0.60489 1.71481,-1.483717 2.71416,-2.034099 0.66794,-0.481701 1.20303,-1.121194 1.87277,-1.602827 0.80985,-0.715876 1.55134,-1.523991 2.50115,-2.06357 0.64812,-0.383572 1.27706,-0.799957 1.91822,-1.193091 0.3308,0.143139 0.59915,-0.238242 0.85644,0.162803 0.62179,-0.167387 0.65149,0.700146 0.44564,1.08624 -0.20176,0.473484 -0.87337,0.640872 -1.25359,0.989405 -0.79453,0.548461 -1.55916,1.142058 -2.30282,1.757225 -0.53685,0.520024 -1.08269,1.041201 -1.75718,1.380571 -0.76869,0.54079 -1.36365,1.291441 -2.13467,1.833182 -1.72142,1.361156 -3.58604,2.522164 -5.37371,3.790651 -1.68027,1.24129 -3.35812,2.486014 -5.03742,3.728275 -1.63901,1.160899 -3.27102,2.338117 -4.80825,3.632592 -1.71271,1.555884 -3.60462,2.890306 -5.43218,4.303541 -1.26802,1.049481 -2.62903,1.978828 -3.92198,2.996958 -1.09728,0.827027 -2.20528,1.64025 -3.29768,2.473742 -1.19803,0.999266 -2.39962,1.996246 -3.63959,2.943364 -1.9783,1.517246 -4.065,2.885606 -6.0352,4.413396 -1.34612,0.98846 -2.68143,1.99431 -3.91658,3.12114 -0.33925,0.24697 -0.61549,0.47909 -0.25566,0.83656 -0.002,0.27973 -0.46673,0.48988 -0.36303,0.73714 0.47696,0.74837 0.74553,1.60284 1.16178,2.3832 0.5064,1.34885 0.76583,2.77679 1.01431,4.19208 0.28788,1.73478 0.13676,3.51016 -0.18258,5.22938 -0.29314,0.64053 0.91176,0.64257 0.77104,1.36133 0.14354,0.4586 -0.48989,0.73588 -0.53758,0.87948 0.52334,0.38905 1.17002,0.66142 1.55556,1.20347 0.0594,0.51536 0.0831,1.07546 -0.2045,1.54359 -0.39529,0.51682 -0.48956,1.21997 -0.97534,1.66738 -0.46929,0.27227 -0.70555,0.84543 -1.05639,1.25776 -0.26343,0.27405 -0.29944,0.54296 0.0111,0.75526 -0.60635,-0.19424 -0.92594,0.57367 -1.32705,0.92934 -0.33473,0.60993 -0.78458,1.14647 -1.09719,1.7704 -0.20473,0.26155 -0.37521,0.57554 0.0876,0.61042 0.77028,0.7055 1.2845,1.6414 2.00786,2.39351 1.33691,1.40694 2.29412,3.12312 3.65291,4.51103 1.23519,1.41049 2.3392,2.93164 3.61739,4.30579 0.98829,1.07955 2.01716,2.12229 2.93938,3.26076 1.22432,1.47099 2.35074,3.01989 3.57858,4.48825 1.06921,1.36847 2.15476,2.72641 3.36448,3.97498 1.08929,1.11963 1.96737,2.41916 3.03914,3.55481 1.48013,1.62035 2.94619,3.2545 4.37139,4.92304 0.30861,0.46349 0.64242,1.13885 0.19823,1.62895 -0.23307,0.18635 -0.57665,0.21021 -0.8226,0.0353 z m -26.55586,-33.7259 c 0.13066,-0.36358 -0.72845,-0.54106 -1.0167,-0.75748 -0.39772,-0.007 -0.35207,0.36524 -0.006,0.40651 0.32679,0.12616 0.66146,0.44915 1.02234,0.35097 z m 0.37689,-0.5788 c 0.33216,-0.53012 -0.69865,-0.82405 -1.06695,-0.96945 -0.68118,0.56657 0.23943,0.90755 0.69473,1.13334 0.19692,0.15508 0.27997,0.0201 0.37222,-0.16389 z m 0.46831,-0.71168 c 0.29298,-0.5541 -0.78663,-0.70913 -1.14499,-0.9647 -0.54924,0.59475 0.46802,0.81189 0.83105,1.09652 0.13797,0.12307 0.23765,-0.0265 0.31394,-0.13182 z m -21.33765,0.0567 c -0.10629,-0.43259 0.10958,-1.25074 -0.51266,-1.30507 -0.60221,-0.10371 -1.20742,-0.2657 -1.82071,-0.25556 -0.30846,0.54346 0.67108,0.54879 1.03027,0.62099 0.27007,0.0796 1.01747,0.0617 0.98771,0.27815 -0.67143,-0.0272 -1.32786,-0.1982 -1.99233,-0.26755 -0.22976,0.64656 0.90203,0.58925 1.32108,0.76436 0.32789,0.007 0.68663,0.18822 0.98664,0.16468 z m 21.69208,-0.61552 c -0.0566,-0.46085 -0.89105,-0.67397 -1.31714,-0.75934 0.15473,0.29011 0.97182,0.94 1.31714,0.75934 z m 0.3956,-0.53405 c 0.40704,-0.36581 -0.46134,-0.5149 -0.71309,-0.7038 -0.17086,-0.0316 -0.39593,-0.3249 -0.51644,-0.11349 -0.55498,0.47945 0.55721,0.65144 0.85304,0.92426 0.14382,0.13515 0.25999,-0.0265 0.37649,-0.10697 z m -25.93608,-0.14942 c -0.41882,-0.47142 -1.27451,-0.32896 -1.87657,-0.43531 -0.36148,0.11584 0.55895,0.24054 0.71114,0.2812 0.34164,-0.007 0.9152,0.34586 1.16543,0.15411 z m 3.63307,-0.29429 c -0.0443,-0.55685 -0.10276,-1.22711 -0.83903,-1.11385 -0.42683,-0.16709 -1.27151,0.0259 -1.46555,-0.36002 0.58544,-0.027 1.17405,0.19208 1.76557,0.23232 0.56217,0.2491 0.28937,-0.62244 -0.15257,-0.44249 -0.60785,-0.0881 -1.21527,-0.21023 -1.82871,-0.24026 0.034,0.35325 -0.0108,1.19238 0.50079,1.23308 0.60868,0.12053 1.24565,0.0899 1.84276,0.25824 -0.18462,0.32823 -0.95992,-0.0994 -1.36957,-0.0127 -0.23715,-0.0725 -1.0431,-0.0731 -0.50447,0.215 0.66867,0.1369 1.33709,0.30962 2.01666,0.37475 0.077,-0.002 0.032,-0.11273 0.0341,-0.14402 z m 22.75828,0.0133 c 0.0272,-0.47224 -0.84681,-0.62093 -1.24622,-0.80794 -0.41674,0.25343 0.56575,0.49448 0.73721,0.6878 0.15255,0.0319 0.38174,0.3385 0.50901,0.12014 z m -26.51229,-0.26727 c -0.28892,-0.52885 -1.12249,-0.31873 -1.6421,-0.47244 -0.57835,-0.0524 -0.0509,-0.34671 0.22669,-0.17012 0.38639,-0.0165 1.22706,0.39361 1.32881,-0.0465 -0.42861,-0.35447 -1.0865,-0.23111 -1.61648,-0.32379 -0.23018,-0.0369 -0.44715,-0.061 -0.33283,0.23632 -0.0243,0.41788 0.11948,0.79401 0.58092,0.63872 0.45387,0.15198 1.03136,0.32409 1.46839,0.20921 l -0.0134,-0.0713 z m 26.76785,-0.1987 c -0.30383,-0.35228 -0.96336,-0.85534 -1.38513,-0.60351 0.41498,0.25164 0.93274,0.63364 1.37436,0.67355 l 0.0107,-0.0697 z m 0.24906,-0.34771 c -0.12945,-0.37162 -0.85336,-0.58255 -1.24914,-0.69164 0.25245,0.26084 0.87723,0.75153 1.24906,0.69169 z m 0.37235,-0.51073 c 0.38943,-0.46947 -0.69021,-0.58508 -0.98293,-0.78016 -0.53524,-0.16595 -0.39697,0.63656 0.056,0.65403 0.29905,0.10028 0.69018,0.57003 0.92691,0.12613 z m -27.56517,-0.0779 c -0.0597,-0.58014 -0.92506,-0.29344 -1.33483,-0.43785 -0.27598,-0.1316 -0.94061,0.0373 -0.42865,0.28322 0.57006,0.0862 1.14879,0.24067 1.72707,0.18412 l 0.0364,-0.0295 z m 28.02697,-0.54422 c 0.25253,-0.46547 -0.70188,-0.47109 -0.98902,-0.69277 -0.38973,-0.36191 -0.72629,0.39775 -0.18448,0.42652 0.33752,0.0467 0.93892,0.70766 1.1735,0.26625 z m -24.45969,-0.0252 c -0.33057,-0.34173 -0.96961,-0.23929 -1.43238,-0.35391 -0.256,-0.0823 -1.22035,-0.11918 -0.56275,0.15031 0.64555,0.16428 1.31247,0.30008 1.97797,0.30639 l 0.02,-0.0218 -0.003,-0.081 z m -3.65539,-0.12814 c -0.54768,-0.22584 -1.18721,-0.27935 -1.77696,-0.40589 -0.41374,0.0877 0.21118,0.53862 0.47757,0.40755 0.38816,-0.063 1.10872,0.3185 1.29942,-0.002 z m 3.57087,-0.33792 c -0.0264,-0.57639 -0.8512,-0.43543 -1.26035,-0.59519 -0.39436,-0.0305 -1.37322,-0.43537 -1.00583,0.3003 0.52918,0.23866 1.14577,0.23068 1.71295,0.34423 0.13979,-0.0343 0.58494,0.20862 0.55323,-0.0493 z m 24.98592,0.011 c 0.53126,-0.48084 -0.69448,-0.62069 -0.98835,-0.82744 -0.31484,-0.24977 -0.72899,-0.13474 -0.59294,0.31586 0.45671,0.22769 1.0109,0.6278 1.50711,0.55639 z m -28.64254,-0.17261 c -0.25341,-0.43174 -1.12262,-0.21733 -1.61704,-0.37036 -0.34947,-0.13407 -0.25554,0.48276 0.0906,0.26874 0.47289,0.005 1.17749,0.41962 1.52957,0.19107 l -0.003,-0.0895 z m 28.99977,-0.41563 c 0.2439,-0.55932 -0.82552,-0.47316 -1.12027,-0.76767 -0.0326,-0.30657 0.71381,0.11473 0.94585,0.16123 0.34447,0.40816 0.79324,-0.31797 0.60399,-0.39688 -0.39265,0.59865 -0.42364,-0.4663 -0.92506,-0.32274 -0.57286,-0.24675 -0.95335,0.12171 -1.14016,0.64132 0.36184,0.35371 1.04351,0.57713 1.56939,0.73073 l 0.0663,-0.046 z m -29.12219,-0.19738 c -0.38746,-0.36289 -1.11229,-0.24374 -1.61864,-0.44866 -0.24552,-0.0865 -0.19279,0.56413 0.10636,0.43469 0.50511,0.0581 1.00726,0.17048 1.51532,0.17781 l 0.0129,-0.059 -0.0159,-0.10481 z m 3.59495,0.0954 c -0.48124,-0.27947 -1.08163,-0.37065 -1.61484,-0.55573 -0.29575,-0.14681 -1.0083,-0.23663 -0.51958,0.21985 0.64137,0.21983 1.32645,0.299 1.99595,0.39476 0.0273,0.0115 0.14606,0.005 0.13847,-0.0589 z m -3.64836,-0.51299 c -0.3064,-0.51713 -1.1545,-0.3841 -1.69063,-0.60996 -0.36029,0.32 0.58498,0.42059 0.86744,0.48474 0.24463,-0.008 0.67339,0.26609 0.82319,0.12522 z m -0.0924,-0.66259 c -0.28604,-0.14609 -0.96984,-0.24603 -1.42208,-0.38251 -0.31071,-0.16239 -0.62135,0.01 -0.16708,0.15371 0.50313,0.1534 1.02654,0.33199 1.55112,0.34435 l 0.0241,-0.0251 0.0139,-0.0904 z M 126.53983,107.698 c 0.36662,-0.29828 -0.18564,-0.98875 -0.20211,-1.42058 -0.0516,-0.30556 -0.52156,-0.089 -0.73406,-0.14126 -0.82489,0.0806 -1.65569,0.14363 -2.47047,0.29664 -0.058,0.73775 0.90879,0.34126 1.34707,0.37429 0.57211,-0.0205 1.15635,-0.15455 1.72389,-0.0551 0.14636,0.36695 -0.82316,0.14712 -1.13426,0.25068 -0.55408,0.0495 -1.11482,0.0671 -1.66196,0.16634 -0.048,0.18689 0.0262,0.68916 0.32982,0.59246 0.93404,-0.0181 1.86897,-0.0168 2.80208,-0.0635 z m 3.19135,-0.19951 c 0.41839,-0.029 1.40542,0.0853 0.83487,-0.56074 -0.53544,-0.16379 -1.11688,-0.0626 -1.67094,-0.083 -0.39969,0.084 -1.49869,-0.16797 -1.18864,0.51191 0.35377,0.42508 1.02399,0.0894 1.50806,0.15579 0.1722,-0.008 0.34447,-0.0164 0.51665,-0.024 z m -1.56344,-0.83389 c 0.7871,-0.0557 1.57651,-0.0558 2.36511,-0.0674 -0.0641,-0.23586 -0.0192,-0.68817 -0.27022,-0.7408 -0.96256,0.0137 -1.92964,0.0343 -2.88405,0.16234 -0.0745,0.44992 0.17674,0.86998 0.67115,0.65504 l 0.11799,-0.01 z m -3.67605,-0.67095 c 0.56664,-0.0929 1.14878,-0.0816 1.71235,-0.16005 -0.0919,-0.64214 -0.34928,-1.25783 -0.56841,-1.86695 -1.00773,0.0664 -2.02057,0.17687 -3.01329,0.37111 -0.46009,0.20808 0.21178,0.55696 0.47404,0.29279 0.75474,-0.15384 1.5337,-0.1108 2.28856,-0.26762 0.60676,0.14165 -0.41345,0.3639 -0.61962,0.34264 -0.69256,0.0838 -1.43104,0.0416 -2.0784,0.3232 -0.0315,0.68445 0.81796,0.25548 1.21873,0.29928 0.64057,-0.044 1.28655,-0.19206 1.928,-0.10622 0.0354,0.35627 -0.7923,0.1479 -1.09685,0.2747 -0.58468,0.0847 -1.17934,0.0923 -1.76146,0.18561 -0.30979,0.59741 0.77,0.40881 1.13679,0.35626 0.12661,-0.014 0.25339,-0.029 0.37956,-0.0447 z m 4.80751,-0.35003 c 0.38459,-0.0465 1.42683,0.0624 0.71194,-0.45688 -0.55123,-0.17957 -1.14306,0.009 -1.70738,0.0411 -0.31879,0.14182 -1.34328,-0.0865 -1.01041,0.48174 0.65977,0.062 1.34346,-0.0258 2.00585,-0.066 z m -1.03909,-0.63933 c 0.5598,-0.0849 1.14286,-0.0621 1.68963,-0.19749 -0.0609,-0.55524 -0.90283,-0.216 -1.30733,-0.25421 -0.53591,0.0703 -1.10214,0.0743 -1.61268,0.23961 -0.0192,0.63905 0.86518,0.14353 1.23038,0.21209 z m -0.48358,-0.60396 c 0.62127,-0.11213 1.26653,-0.0797 1.88131,-0.18886 -0.1448,-0.63935 -0.99271,-0.25118 -1.46207,-0.30333 -0.39997,0.12558 -1.36231,-0.11987 -1.34848,0.39592 0.12581,0.37079 0.65367,0.079 0.92924,0.0963 z m -5.02622,-0.34333 c 0.92511,-0.16485 1.86252,-0.24795 2.79444,-0.36602 0.0314,-0.61803 -0.71283,-0.12056 -1.08753,-0.22089 -0.728,0.0162 -1.45039,0.12245 -2.1752,0.16109 -0.0255,0.33098 0.0816,0.62402 0.46829,0.42582 z m 4.48827,-0.30545 c 0.69716,-0.0929 1.40271,-0.1 2.10037,-0.1852 0.007,-0.47736 -0.0432,-1.10219 -0.6886,-0.91019 -0.75687,-0.0108 -1.51753,-0.049 -2.27267,0.006 -0.12436,0.54355 0.89927,0.24374 1.24525,0.34011 0.47352,0.0416 1.06292,-0.0624 1.45696,0.11718 -0.53228,0.26211 -1.21436,0.0588 -1.80427,0.12088 -0.38658,-0.0144 -1.00932,-0.0844 -0.64416,0.47207 0.13531,0.18815 0.42016,0.038 0.60712,0.0395 z m -3.06557,-0.51159 c 0.33296,-0.14244 1.45902,0.21394 1.1135,-0.40281 -0.52273,-0.0584 -1.08548,0.0461 -1.62489,0.0374 -0.51613,0.074 -1.14843,-0.0814 -1.58287,0.1975 0.15495,0.55199 1.01611,0.11045 1.44711,0.20807 0.21571,-0.0132 0.43157,-0.0266 0.64715,-0.0402 z M 184.9252,68.251796 c -0.17994,-0.114877 -0.11821,0.376891 0,0 z"
         id="path4500"
         inkscape:connector-curvature="0" />
      <path
         style="fill:#000001;fill-opacity:1;stroke-width:0.04618182"
         d="m 161.57205,164.98771 c -0.94711,-0.60781 -1.62033,-1.53812 -2.40917,-2.32445 -1.33807,-1.50003 -2.64267,-3.02997 -4.01865,-4.49589 -0.94143,-1.05829 -1.78697,-2.19668 -2.70044,-3.27889 -1.40381,-1.77946 -2.78213,-3.58684 -4.37162,-5.20806 -0.83933,-0.92805 -1.56541,-1.94976 -2.35204,-2.92165 -0.95561,-1.28781 -1.94144,-2.55264 -2.99266,-3.76442 -1.50043,-1.76381 -3.03654,-3.49816 -4.48187,-5.30776 -0.881,-0.96547 -1.8133,-1.88476 -2.63828,-2.90076 -0.71154,-0.78937 -1.4746,-1.53266 -2.14122,-2.36144 -0.53846,-0.18767 -0.64688,-0.77563 -1.01948,-1.13808 -0.13312,-0.23261 -0.3172,-0.21589 -0.53172,-0.10231 -0.48673,-0.0125 -0.99608,0.17978 -0.52214,0.68103 0.8079,1.63722 1.86588,3.13025 2.72839,4.7372 0.82145,1.52063 1.62794,3.05097 2.50559,4.54003 0.69033,1.08675 1.21893,2.26738 1.94435,3.33347 0.71171,1.16087 1.34894,2.36551 2.07488,3.51778 1.30181,2.33519 3.02849,4.4073 4.26256,6.78247 0.53071,0.93717 1.18325,1.79945 1.66097,2.76752 0.45323,0.81097 0.84856,1.65199 1.29806,2.46472 0.24124,0.55587 0.49642,1.14563 0.4704,1.7624 -0.23749,0.4635 -0.89318,0.6012 -1.37604,0.64448 -0.88556,-0.54176 -1.16203,-1.62033 -1.66233,-2.46749 -1.00064,-1.71081 -1.89097,-3.48774 -2.99788,-5.13558 -0.8873,-1.50734 -1.75751,-3.02701 -2.56011,-4.58101 -1.35151,-2.11569 -2.65423,-4.26291 -3.9471,-6.4151 -0.67152,-1.18204 -1.45395,-2.29778 -2.08711,-3.50255 -0.97495,-1.73747 -1.93125,-3.48531 -2.95462,-5.19517 -0.56684,-1.03831 -1.20198,-2.03613 -1.81291,-3.04796 -0.24731,-0.53908 -0.49848,-1.08034 -0.92422,-1.50778 -0.50815,-0.61294 -0.84317,-1.33702 -1.21026,-2.03503 -0.36249,-0.38307 -1.02563,-0.42056 -1.41749,-0.8566 -0.20598,-0.49891 -0.46138,-1.01085 -0.33024,-1.57147 0.009,-0.56999 0.33489,-1.04852 0.83096,-1.31183 0.43798,-0.36049 1.0964,-0.53056 1.60198,-0.18506 0.55839,0.16986 1.13524,0.41509 1.41049,0.98723 0.39528,0.32619 0.2122,1.45368 -0.33631,1.24184 0.10292,-0.50685 0.20061,-1.0386 -0.32611,-1.38532 -0.51222,-0.292 -1.19984,-0.81315 -1.80267,-0.49459 -0.5578,0.25586 -1.04471,0.71775 -0.97917,1.38517 -0.0652,0.55503 0.24013,1.16126 0.77416,1.36881 0.35577,0.0791 -0.36121,-0.36595 -0.41152,-0.48043 -0.51915,-0.78993 0.0786,-2.10711 1.06963,-2.10301 0.62388,-0.032 1.31726,0.30096 1.54146,0.90789 0.19314,0.3488 -0.36738,1.11868 -0.42717,0.42499 0.17897,-0.70731 -0.74189,-0.98318 -1.29078,-0.92276 -0.52173,0.17393 -0.6919,0.75952 -0.64557,1.2585 0.0424,0.28333 0.42925,0.4291 0.5725,0.68115 0.63399,0.87662 0.98196,1.92851 1.66082,2.77846 0.36833,0.45208 0.74067,0.91269 0.91263,1.48068 0.44803,0.91942 1.08666,1.73093 1.55205,2.64263 1.0883,1.88112 2.1895,3.75516 3.21929,5.669 0.56292,1.00858 1.16792,1.99155 1.78655,2.96648 1.16666,2.01396 2.39609,3.99146 3.62441,5.96821 0.93505,1.35883 1.60909,2.8693 2.44408,4.28773 0.98339,1.74599 2.13477,3.39472 3.03481,5.1886 0.56318,0.92209 1.0521,1.88492 1.54724,2.84438 0.14566,0.36712 0.33453,0.52139 0.54614,0.12423 0.37925,-0.27623 1.20499,-0.29 0.7043,-0.92586 -0.43138,-0.89998 -0.91773,-1.77369 -1.37016,-2.66378 -0.64321,-1.26539 -1.52699,-2.38841 -2.15316,-3.66297 -0.91231,-1.58738 -2.03398,-3.03973 -2.98809,-4.60102 -0.61398,-0.94074 -1.16405,-1.92143 -1.74213,-2.88437 -0.79377,-1.49397 -1.7853,-2.87265 -2.54412,-4.38569 -0.61042,-1.02683 -1.23033,-2.04816 -1.78695,-3.10613 -0.96453,-1.78397 -1.89892,-3.58715 -3.0095,-5.28705 -0.73357,-1.15429 -1.22544,-2.44419 -2.01948,-3.56278 -0.57219,-0.86823 -1.17602,-1.71804 -1.64452,-2.64862 -0.19154,-0.21187 -0.50965,-1.02666 0.0555,-0.76534 0.54019,1.03305 1.13407,2.03893 1.81127,2.98988 0.34655,0.28363 0.44634,1.27475 1.02255,0.96518 0.48174,-0.19804 1.10781,-0.3485 1.45534,0.17531 0.38906,0.43592 0.72645,0.90912 1.15794,1.30831 0.88756,1.08399 1.907,2.0504 2.80333,3.1272 0.86495,0.94802 1.79276,1.84073 2.56324,2.8711 1.85076,2.26368 3.8478,4.40648 5.64881,6.71074 0.92339,1.29479 1.93478,2.52228 2.91648,3.77199 1.05376,1.19289 2.16201,2.33908 3.14937,3.59003 0.9952,1.25092 1.95942,2.52629 2.99645,3.74366 1.06126,1.43584 2.34953,2.67799 3.50914,4.03087 0.86686,0.98008 1.71927,1.97286 2.62244,2.92029 0.47762,0.53127 0.96012,1.07474 1.55326,1.47983 0.73454,0.25249 0.31984,-0.82077 0.0489,-1.08851 -2.0851,-2.53529 -4.43625,-4.8398 -6.46171,-7.42547 -1.07795,-1.2221 -2.22551,-2.38429 -3.22731,-3.67273 -1.20038,-1.54092 -2.45616,-3.03749 -3.63529,-4.59505 -1.21624,-1.57958 -2.5971,-3.01843 -3.93925,-4.48877 -1.13047,-1.22098 -2.12768,-2.55411 -3.19744,-3.82615 -0.68797,-0.774 -1.4013,-1.52772 -1.98558,-2.38638 -0.72736,-0.98959 -1.48679,-1.95421 -2.30945,-2.86683 -0.60261,-0.69128 -1.1059,-1.4685 -1.74837,-2.12274 0.0239,-0.65115 0.76501,0.233 0.92485,0.47927 0.79589,1.0838 1.72513,2.05817 2.55329,3.11545 0.86078,1.14631 1.69471,2.31669 2.69079,3.35246 1.10915,1.28878 2.11054,2.6681 3.27321,3.91177 1.6255,1.7546 3.2552,3.51251 4.68264,5.43588 0.99254,1.29522 2.054,2.53551 3.04786,3.82977 1.07438,1.36602 2.31274,2.5894 3.43738,3.91144 1.71548,2.23723 3.74796,4.20245 5.55735,6.36049 0.46759,0.54348 1.0491,1.10372 1.12265,1.85128 0.0267,0.52334 -0.4772,0.86479 -0.9414,0.59941 z m -13.8694,-3.29605 c -0.0351,-0.30276 -0.65219,0.0522 -0.15766,0.0988 0.0668,0.0427 0.17904,-0.0103 0.15766,-0.0988 z m -89.939091,2.51733 c -0.703563,-0.26392 -0.489893,-1.04703 0.01735,-1.38805 1.169173,-1.04027 2.540411,-1.81544 3.792654,-2.74776 1.720067,-1.24014 3.559133,-2.30717 5.241636,-3.60117 0.717247,-0.52276 1.480016,-0.97541 2.221217,-1.4606 1.087764,-0.77612 2.050765,-1.71008 3.144568,-2.47884 0.827158,-0.69192 1.706626,-1.31522 2.633187,-1.86637 0.736137,-0.52866 1.480963,-1.04749 2.195104,-1.60531 0.943672,-0.86075 2.075383,-1.47439 3.056271,-2.28896 1.210339,-0.87285 2.417891,-1.74954 3.655998,-2.58295 1.395298,-1.01539 2.566131,-2.30977 4.019723,-3.25077 1.012521,-0.68944 2.052182,-1.34152 2.993821,-2.12877 1.18947,-0.81074 2.482233,-1.45556 3.706161,-2.2107 1.727388,-1.27031 3.525254,-2.44086 5.314739,-3.62096 0.693382,-0.52674 1.417412,-1.01337 2.099722,-1.55359 0.85521,-0.75658 1.68623,-1.54401 2.4751,-2.36925 0.0813,-0.6054 0.8014,-0.61088 1.17917,-1.00764 0.0949,-0.26507 0.56614,-0.31586 0.54144,-0.61447 -0.0305,-1.37562 -0.0464,-2.76674 -0.39929,-4.10566 -0.10522,-0.7134 -0.50925,-1.33201 -0.62824,-2.0429 -0.37758,-1.2136 -0.46495,-2.48876 -0.54727,-3.74955 0.0295,-0.36496 -0.3301,-0.59944 -0.0162,-0.93258 0.002,-0.73079 0.0908,-1.45463 0.24069,-2.1697 0.12455,-0.67564 0.17934,-1.36478 0.26029,-2.04251 -0.41149,-0.43596 -0.97129,-0.70001 -1.46272,-1.03353 -0.61089,0.11644 -0.99428,-0.49364 -0.51447,-0.96296 0.26346,-0.46008 0.60064,-0.86549 0.91057,-1.29231 0.4406,-0.70121 0.78557,-1.46384 1.31174,-2.10871 0.30483,-0.63952 0.79576,-1.18484 1.02485,-1.8585 0.14644,-0.61762 0.76483,-0.9587 1.01836,-1.52874 0.32045,-0.25275 -0.0459,-0.5923 0.26255,-0.82976 -1.58116,-1.93583 -3.41995,-3.645055 -5.0072,-5.576946 -1.27683,-1.465898 -2.668762,-2.823575 -4.058999,-4.180043 -1.48145,-1.466419 -2.66719,-3.19103 -4.053922,-4.741728 -1.732351,-2.050855 -3.66356,-3.921234 -5.454105,-5.920046 -1.718955,-1.81299 -3.354247,-3.702706 -4.934526,-5.637378 -1.292995,-1.536643 -2.704043,-2.970236 -3.962737,-4.536203 -0.749894,-0.771598 -1.388205,-1.636635 -2.046355,-2.48499 -0.857239,-1.020536 -1.656456,-2.105811 -2.689328,-2.960546 -0.158202,-0.49529 -0.590546,-0.893302 -0.651763,-1.434439 0.02711,-0.37697 0.323817,-0.718526 0.602348,-0.927885 0.458719,0.0058 0.942527,0.06262 1.272363,0.423715 1.262825,1.158533 2.250047,2.574959 3.424989,3.817675 1.490257,1.621177 2.902249,3.310911 4.297712,5.013435 1.292128,1.403809 2.545907,2.84234 3.836229,4.247677 1.180901,1.253306 2.436908,2.445297 3.442065,3.851709 0.844904,1.092143 1.730161,2.153481 2.68869,3.147643 1.20615,1.408075 2.662082,2.573185 3.89829,3.953977 1.199842,1.29976 2.267319,2.714887 3.485589,3.99888 1.46708,1.59909 2.82211,3.295615 4.25828,4.921751 0.94904,1.14965 1.97703,2.231126 2.93719,3.371632 0.58921,0.62433 1.105,1.33285 1.78775,1.86004 0.48238,0.32043 1.10235,0.21963 1.64391,0.16789 0.44961,-0.36129 -0.18043,-0.99659 -0.32355,-1.43387 -1.34249,-2.44271 -2.77932,-4.841115 -4.4391,-7.083838 -1.01321,-1.430711 -1.55538,-3.117153 -2.45042,-4.615071 -0.753,-1.280558 -1.54277,-2.53935 -2.25433,-3.844071 -0.61561,-1.174447 -1.2938,-2.31381 -1.93338,-3.474667 -0.42064,-0.857237 -1.069088,-1.598285 -1.386889,-2.504488 -0.159124,-0.505163 -0.206624,-1.463841 0.497758,-1.518133 0.675541,0.02814 0.994221,0.716709 1.259941,1.238371 0.59003,0.884149 0.99074,1.893505 1.72401,2.679191 0.78634,1.185411 1.30292,2.525568 2.0605,3.729345 0.9094,1.671375 1.88348,3.30638 2.94125,4.888328 1.05689,1.613766 1.9297,3.336109 2.8936,5.004592 0.75813,1.449972 1.55241,2.881257 2.34402,4.312931 0.19953,0.53674 0.88879,0.47052 1.28562,0.20853 0.0497,-0.32999 0.0117,-0.70982 0.0277,-1.058969 -0.001,-1.066675 0.0379,-2.135584 0.002,-3.200458 -0.22906,-0.477504 -0.64247,-0.977574 -0.51422,-1.541825 0.0782,-0.333409 0.3276,-0.607148 0.4403,-0.915236 -0.14545,-1.19733 -0.4193,-2.382139 -0.39843,-3.594819 0.11772,-0.719695 -0.89128,-0.736262 -0.86737,-1.433562 -0.146,-0.650112 0.50184,-1.053429 1.06696,-1.026555 0.0755,-0.484919 -0.0242,-1.033179 -0.0876,-1.520778 -0.69037,-0.240123 -1.48341,-0.248541 -2.09329,-0.690968 -0.29954,-0.528186 0.0965,-1.216599 0.722,-1.242108 2.63029,-0.814008 5.40819,-0.890173 8.13544,-1.061274 2.64895,-0.07035 5.30654,0.12751 7.91952,0.562551 0.47686,0.169624 1.3072,0.211184 1.39013,0.794865 -0.0834,0.555111 -0.48475,0.987705 -1.01324,1.156983 -0.4614,0.169136 -1.10411,0.358676 -1.19317,0.904606 -0.10716,0.36745 0.042,0.457119 0.39362,0.475118 0.5556,0.39207 0.36986,1.199188 0.34516,1.782851 -0.0169,0.636254 -0.49165,1.177109 -1.1282,1.19715 0.102,0.812845 -0.0673,1.664023 0.024,2.488145 0.0703,0.454734 0.0617,0.881523 0.54901,1.08546 0.43917,0.363087 0.37918,1.039946 0.18719,1.517939 -0.28477,0.45137 -0.92682,0.822037 -0.52642,1.429318 0.0984,1.102907 0.0101,2.218258 0.13114,3.320876 0.41928,0.30762 1.14365,0.19426 1.61297,0.55735 0.43351,0.353 1.0694,0.39544 1.42483,0.82974 0.35947,0.36203 0.20011,1.35061 0.87552,1.24924 0.65781,-0.0231 1.33875,-0.1153 1.98318,0.0294 0.37733,0.53588 0.57308,1.18748 0.89999,1.75858 0.061,0.37663 0.82969,1.09253 0.28879,1.27829 -0.37742,-0.36375 -0.51241,-0.93143 -0.77626,-1.38556 -0.31455,-0.43279 -0.31736,-1.25774 -0.94717,-1.32066 -0.6587,-0.0425 -1.32159,0.0582 -1.97821,-0.008 -0.44312,-0.37579 -0.35272,-1.13021 -0.79259,-1.52656 -0.71228,-0.21705 -1.27927,-0.76269 -2.02793,-0.8891 -0.41041,-0.0515 -1.1275,0.15772 -0.98111,-0.52169 -0.0345,-1.141102 -0.007,-2.291854 -0.15767,-3.424366 -0.30527,-0.587662 0.17591,-1.05979 0.55909,-1.438049 0.38677,-0.527477 0.14463,-1.293007 -0.48317,-1.49001 -0.21478,-0.552316 -0.26182,-1.201938 -0.24268,-1.807001 -0.0176,-0.545794 0.1349,-1.128402 -0.10857,-1.637757 0.0242,-0.373904 0.17589,-0.734772 0.64001,-0.53265 0.69083,-0.11766 0.61655,-1.036205 0.64081,-1.580281 0.0749,-0.437628 -0.21104,-0.80333 -0.60092,-0.458778 -0.55311,-0.340099 -0.12266,-1.028071 -0.10753,-1.531244 0.33235,-0.418363 0.93383,-0.52366 1.4126,-0.726796 0.38358,-0.06189 1.08612,-0.939735 0.31133,-0.827347 -0.32748,-0.493026 -1.02893,-0.383856 -1.54566,-0.518409 -1.98267,-0.290749 -3.98493,-0.444778 -5.98944,-0.410793 -1.64986,-0.01508 -3.29397,0.143055 -4.93744,0.265704 -1.47601,0.166287 -2.96015,0.392333 -4.37013,0.873152 -0.2192,0.194304 -0.32097,0.731339 0.15868,0.709785 0.56163,0.187818 1.17884,0.224499 1.70677,0.497701 0.24745,0.438663 0.14055,0.996309 0.18109,1.485772 0.1199,0.522879 -0.18682,0.82312 -0.70827,0.737867 -0.72043,0.110042 -0.30455,1.110541 0.26633,1.150316 0.17126,0.243659 0.40511,0.565034 0.4342,0.85728 -0.43543,0.436106 -0.10313,1.122957 -0.10027,1.662737 0.14643,0.642859 0.13353,1.317665 0.338,1.945981 0.39693,0.527131 -0.55605,0.420852 -0.49249,0.987715 -0.0629,0.440763 0.212,0.924832 0.5443,1.208388 -0.0476,1.468122 -0.0664,2.940812 0.006,4.407113 -0.11945,0.64677 -0.85282,0.703 -1.38398,0.67548 -0.31189,0.0711 -0.68734,0.0606 -0.56756,-0.36974 -1.0299,-1.863323 -2.02799,-3.748436 -3.06274,-5.610544 -0.90875,-1.610269 -1.79029,-3.23876 -2.83808,-4.765021 -1.10543,-1.644985 -2.00603,-3.414191 -3.00985,-5.120387 -0.57823,-1.09124 -1.04498,-2.264185 -1.88256,-3.193049 -0.52439,-0.70953 -0.85444,-1.536886 -1.35322,-2.263269 -0.0317,-0.445778 -0.955515,-1.396947 -1.054424,-0.547231 -0.107411,0.87668 0.577254,1.563682 0.964124,2.281641 0.72562,1.345224 1.53016,2.646027 2.23726,4.001621 0.72441,1.339873 1.51284,2.642433 2.29748,3.947228 0.62059,1.037424 1.12304,2.136087 1.63348,3.229425 0.5989,1.269511 1.5434,2.319986 2.28644,3.500398 1.12219,1.726261 2.18693,3.491832 3.16377,5.304348 0.18144,0.47828 0.66337,0.9676 0.4277,1.50449 -0.31175,0.51018 -1.0332,0.37674 -1.54421,0.3911 -0.29945,-0.0716 -0.77466,-0.20125 -0.35375,0.20512 0.32908,0.43059 0.59684,0.91892 1.06693,1.21941 0.3247,0.13505 0.98151,0.92202 0.3159,0.86062 -0.43564,-0.50839 -1.08179,-0.80738 -1.41915,-1.40684 -0.25685,-0.50604 -0.76754,-0.89073 -0.96213,-1.3971 -0.18807,-0.56108 -0.73175,-0.93215 -1.07711,-1.4022 -0.99665,-1.15038 -2.0136,-2.282762 -3.01736,-3.426551 -1.09323,-1.312368 -2.21879,-2.597674 -3.32452,-3.899671 C 101.155,92.914711 99.866619,91.488352 98.650738,89.999494 97.40378,88.51417 95.949724,87.226179 94.576319,85.862466 93.455976,84.633692 92.32683,83.409088 91.323613,82.079935 90.463774,80.926617 89.493869,79.863788 88.476491,78.8486 86.989935,77.299865 85.6195,75.645116 84.146534,74.083684 83.079018,72.823709 82.054668,71.526594 80.932638,70.313291 79.73874,68.933752 78.517323,67.578263 77.346411,66.178895 76.868226,65.678634 76.435352,65.07786 75.792795,64.784796 c -0.739593,-0.112277 -0.926023,0.731732 -0.455267,1.16915 0.339789,0.429885 0.609881,0.897615 1.03769,1.251945 0.762146,0.82137 1.463265,1.697192 2.163422,2.571187 0.574031,0.726587 1.110318,1.48493 1.768767,2.140164 1.029208,1.249737 2.11817,2.447895 3.203225,3.649113 1.14782,1.313247 2.22142,2.689079 3.385616,3.988577 1.340465,1.492932 2.712949,2.956883 4.067278,4.437196 2.056138,2.114097 4.033402,4.306468 5.855114,6.627113 1.461866,1.852826 3.2676,3.389622 4.86689,5.117504 1.17206,1.216302 2.18755,2.572937 3.38972,3.761868 1.08959,1.158867 2.20364,2.308937 3.1506,3.587127 0.77975,0.72719 1.73234,1.33336 2.25491,2.28965 -0.42084,0.53397 -0.73835,-0.54775 -1.1338,-0.74578 -0.43211,-0.41886 -0.87226,-0.84221 -1.3774,-1.1708 -0.46975,0.21719 -0.61143,0.85197 -1.00804,1.18623 -0.42094,0.3584 -0.36851,0.96666 -0.72797,1.37174 -0.3953,0.54664 -0.64325,1.18406 -1.08604,1.69772 -0.4941,0.73325 -0.79827,1.60055 -1.4277,2.2342 -0.11224,0.3484 -0.87112,0.89614 -0.14877,1.01958 0.57352,0.26561 1.043,0.72384 1.61217,0.99104 0.18821,-0.42194 0.21614,-0.92148 0.43627,-1.34309 0.40484,-0.923 0.98953,-1.75281 1.54355,-2.58833 0.56676,-0.75009 1.38142,-1.35331 1.715,-2.25471 -0.15106,-0.48904 0.37826,-0.63039 0.52006,-0.16347 -0.10173,0.55468 -0.51839,0.99562 -0.8373,1.44492 -0.52853,0.64781 -1.16005,1.2178 -1.55428,1.96604 -0.61467,0.89111 -1.14615,1.85802 -1.35768,2.93044 -0.12989,0.57826 -0.48372,1.05221 -0.41637,1.66791 -0.12792,0.9902 -0.4474,1.96541 -0.36999,2.9736 0.47488,-0.099 1.06799,-0.45258 1.65136,-0.39046 0.93268,-0.0264 1.86697,-0.0691 2.77968,-0.27715 1.48114,-0.24453 2.95406,-0.54826 4.45295,-0.66838 1.23747,-0.16474 2.48294,-0.26711 3.73084,-0.30346 0.005,-1.60038 -0.0658,-3.20204 0.004,-4.80125 0.14053,-1.59933 0.0606,-3.20847 0.0668,-4.81206 -0.0406,-0.66988 0.05,-1.36103 -0.11476,-2.01559 -0.20325,-0.22774 -0.30519,-0.9738 0.16417,-0.59894 0.26613,0.29498 0.20494,0.79477 0.65962,0.85009 0.17279,0.37963 0.70832,1.01445 0.39972,1.3714 -0.38477,0.0834 -0.63946,-1.31498 -0.68794,-0.49704 -0.0123,0.38331 -0.005,0.76689 -0.007,1.15033 0.51086,0.2055 0.83908,0.72195 1.0463,1.20994 -0.18143,0.70327 -0.58271,-0.29809 -0.79167,-0.49768 -0.40917,-0.29453 -0.17685,0.5883 -0.20921,0.85213 -0.0782,0.4102 0.14748,0.20425 0.3908,0.32784 0.17167,0.26369 0.84648,1.10592 0.24512,1.12949 -0.20004,-0.15567 -0.45667,-0.82757 -0.62546,-0.74763 -0.0216,0.56307 -0.0433,1.12615 -0.0649,1.68922 0.36474,0.33212 0.64902,0.75987 0.84029,1.21162 -0.30911,0.59054 -0.67169,-0.63163 -0.89896,-0.5008 -0.0562,1.52225 -0.0405,3.05044 0.0502,4.57102 0.24421,0.15319 0.68528,-0.007 1.01419,-0.001 0.29193,0.0649 0.26587,-0.16264 0.25008,-0.38071 0.007,-1.24236 -0.004,-2.48492 -0.0836,-3.72481 -0.0375,-1.99866 0.0505,-3.99721 0.18397,-5.99062 0.0394,-0.56785 -0.0842,-1.15118 0.0358,-1.70876 0.50522,-0.22323 0.30896,0.74397 0.3764,1.05063 0.0278,1.24137 -0.14057,2.47708 -0.14356,3.7188 -0.0459,0.88422 -0.0914,1.76732 -0.0315,2.65259 0.0508,1.45065 0.0758,2.902 0.10116,4.35327 1.8389,0.12162 3.67518,0.30094 5.52006,0.30351 1.63573,0.0294 3.27945,-0.0352 4.90302,0.21104 2.11351,0.22064 4.24582,0.0802 6.3618,0.24713 0.57728,0.11652 1.16079,0.21695 1.74493,0.28259 0.063,-0.57627 -0.10857,-1.16952 -0.18697,-1.74594 -0.1819,-1.08136 -0.46335,-2.14317 -0.77953,-3.19091 -0.25736,-0.61604 -0.57767,-1.2034 -0.83041,-1.82251 -0.12396,-0.47286 -0.82274,-0.94973 -0.33503,-1.42456 0.40848,-0.31664 -0.50003,-0.73093 0.13334,-1.01187 0.91719,-0.70647 1.72691,-1.54158 2.66531,-2.22313 1.46421,-1.0659 2.87232,-2.20879 4.36909,-3.23084 1.96669,-1.400774 3.92893,-2.811816 5.77484,-4.370885 0.91223,-0.728121 1.78721,-1.503488 2.7526,-2.1633 1.35062,-1.009485 2.69107,-2.032264 4.03464,-3.051364 1.1649,-0.821192 2.23661,-1.764586 3.39324,-2.597727 1.42392,-1.034023 2.76884,-2.168414 4.10726,-3.309185 1.21264,-1.013816 2.49547,-1.939268 3.77053,-2.871792 0.9179,-0.610826 1.79767,-1.273996 2.66174,-1.957176 1.83874,-1.314172 3.61484,-2.716595 5.52192,-3.93347 1.58087,-1.091996 3.17477,-2.18889 4.54556,-3.544247 0.56927,-0.543799 1.34935,-0.806273 1.87111,-1.409324 0.70986,-0.70028 1.5409,-1.260639 2.32252,-1.874964 0.50864,-0.362997 1.05136,-0.676726 1.55006,-1.053714 -0.277,-0.305761 -0.78385,-0.69078 -0.48064,-1.135799 0.25051,-0.01361 0.32602,0.373313 0.62656,0.181559 0.4856,0.286031 0.27582,0.985724 0.006,1.310998 -1.36679,0.939593 -2.76651,1.854071 -3.94398,3.033634 -0.56437,0.544898 -1.33446,0.807772 -1.8714,1.386337 -1.30641,1.297008 -2.8475,2.319602 -4.3452,3.377874 -1.7764,1.148947 -3.46932,2.417645 -5.16805,3.676562 -0.92606,0.627021 -1.74779,1.394854 -2.7007,1.985179 -1.13684,0.782327 -2.22042,1.637996 -3.32499,2.464358 -1.42849,1.130163 -2.75245,2.388601 -4.23134,3.456148 -1.19691,0.889069 -2.3713,1.8074 -3.54341,2.728236 -1.85146,1.354262 -3.64511,2.786398 -5.50968,4.123429 -1.54672,1.243845 -3.05304,2.539873 -4.65285,3.716963 -1.94814,1.47111 -3.98524,2.82018 -5.90961,4.32346 -1.40218,1.02662 -2.78212,2.09491 -4.03493,3.30029 0.37064,0.32258 0.11999,0.67763 -0.13685,0.97121 -0.0947,0.23346 0.27354,0.48552 0.32651,0.73542 0.31493,0.67785 0.60642,1.36691 0.92434,2.04378 0.30567,0.94779 0.56019,1.91579 0.73992,2.89719 0.43192,1.86498 0.43205,3.81131 0.0987,5.69168 -0.099,0.51626 -0.29671,1.14844 0.3613,1.3397 0.47711,0.29505 0.43116,1.30346 -0.1841,1.34059 -0.21573,-0.27179 0.49873,-0.89645 -0.1631,-1.05999 -0.48515,-0.29595 -1.03988,-0.48095 -1.6227,-0.43596 -0.60316,-0.024 -1.35891,0.0276 -1.34425,0.79853 -0.28306,0.61451 -0.50872,1.25856 -0.7005,1.90409 0.24723,0.2444 0.49875,1.22789 -0.0282,1.19431 -0.205,-0.15575 -0.0879,-1.0231 -0.36079,-0.38074 -0.21186,0.39264 -0.69557,0.76435 -0.27607,1.11992 0.16952,0.33301 -0.25771,0.88014 -0.38235,0.31337 0.002,-0.376 -0.1104,-0.24629 -0.25494,-0.002 -0.21801,0.30582 -0.43712,0.6109 -0.66217,0.9116 0.39998,0.16774 0.19083,1.23824 -0.18876,0.78754 0.0338,-0.3983 -0.12915,-0.49693 -0.36074,-0.14335 -0.15571,0.24791 -0.85232,0.69304 -0.26008,0.77646 0.24784,0.39727 -0.46906,0.92331 -0.3933,0.25327 0.0526,-0.5681 -0.79769,0.99915 -0.82443,0.15213 0.762,-1.09543 1.74875,-2.01598 2.46398,-3.14758 0.49622,-0.76173 0.9914,-1.53448 1.26505,-2.40945 0.12707,-0.59822 0.55161,-1.13631 0.5862,-1.73466 -0.0789,-0.59707 0.74321,-0.72271 1.19386,-0.78157 0.52761,-0.0834 1.05991,0.0157 1.58519,0.0106 0.25677,-0.90209 0.28863,-1.85707 0.37899,-2.78797 0.1438,-0.55914 -0.0227,-1.27032 -0.74118,-1.18661 -0.65462,-0.0651 -1.29087,-0.26451 -1.95509,-0.23717 -2.29121,-0.0621 -4.59123,-0.0291 -6.86775,-0.33715 -2.42255,-0.0986 -4.85403,-0.005 -7.27067,-0.24456 -0.57643,-0.0508 -1.15485,-0.0694 -1.73325,-0.0771 0.05,1.53427 0.171,3.06671 0.28686,4.59717 0.12313,0.83755 0.2986,1.66802 0.33593,2.51649 0.16922,1.53351 0.4832,3.04768 0.62309,4.58492 0.19669,1.51021 0.8144,2.91676 1.16419,4.38921 0.13405,0.78041 0.28716,1.56751 0.58351,2.30425 0.5416,-0.0386 1.15596,-0.11367 1.7172,-0.21656 0.6986,-0.1349 1.41459,-0.21149 2.07497,-0.49586 0.53586,-0.12502 1.03715,-0.35973 1.58135,-0.44281 0.1624,-0.23632 0.94109,-0.66684 0.78705,-0.10993 -0.37855,0.36928 -0.8332,0.57242 -1.3594,0.63476 -0.96781,0.36177 -1.96866,0.63293 -2.99163,0.78153 -0.75693,0.14454 -1.5297,0.18866 -2.28238,0.36043 -0.57926,0.099 -1.07076,-0.13583 -1.65871,-1.6e-4 -0.89389,-0.0263 -1.75137,-0.32946 -2.64667,-0.35764 -0.59385,-0.10796 -1.12698,-0.43407 -1.73352,-0.49737 -1.01541,-0.34464 -1.91751,-0.95459 -2.92407,-1.3248 -0.62038,-0.26154 -1.18433,-0.70605 -1.88056,-0.7328 -0.66138,-0.10173 -1.19385,-0.58533 -1.85093,-0.67686 -0.5894,0.006 -1.18239,-0.082 -1.67277,-0.43414 -0.55247,-0.0176 -0.80875,-0.77168 -1.36877,-0.33768 -0.76623,0.55272 -1.47268,1.19033 -2.22355,1.76654 -0.9363,0.75378 -1.92947,1.4331 -2.85806,2.19747 -1.399675,1.04867 -2.840279,2.043 -4.285804,3.02745 -1.094337,0.67609 -2.101996,1.47406 -3.133603,2.23884 -2.140503,1.53022 -4.183104,3.19949 -6.411711,4.60404 -1.558273,1.09158 -3.159376,2.12244 -4.664006,3.28923 -1.019548,0.74765 -2.056951,1.47032 -3.047722,2.25612 -0.654705,0.45258 -1.288888,0.96043 -2.014165,1.29183 -0.535567,0.20697 -0.958164,0.64137 -1.432391,0.96239 -1.411034,1.06093 -2.818703,2.12693 -4.187725,3.24153 -1.101762,0.76001 -2.227352,1.48683 -3.314749,2.26847 -0.981127,0.63868 -1.93565,1.31669 -2.833811,2.06814 -1.35285,0.96201 -2.706265,1.92903 -4.117174,2.80469 -1.180887,0.63151 -2.238713,1.45555 -3.328201,2.22616 -0.23152,0.15204 -0.546779,0.22268 -0.815719,0.14731 z m 0.729718,-0.54579 c 1.088645,-0.81196 2.198949,-1.59845 3.389455,-2.2565 1.298979,-0.82194 2.551259,-1.71672 3.807964,-2.60091 0.845918,-0.67332 1.690362,-1.34942 2.609302,-1.92335 1.140882,-0.77885 2.258776,-1.59134 3.423813,-2.33435 1.199001,-0.89975 2.346593,-1.86784 3.552974,-2.75911 0.834434,-0.59568 1.608617,-1.29271 2.522795,-1.76638 0.701462,-0.2734 1.277351,-0.79786 1.899318,-1.21421 1.474399,-1.14812 3.013347,-2.21025 4.505074,-3.33614 1.079574,-0.7415 2.161842,-1.4795 3.236285,-2.22842 1.01403,-0.63316 1.998995,-1.30939 2.944936,-2.04127 1.371468,-1.01975 2.741587,-2.04087 4.119205,-3.05246 1.405289,-1.10607 2.959865,-2.00018 4.389429,-3.0733 1.269133,-0.85969 2.500913,-1.7732 3.685183,-2.7462 0.96,-0.65921 1.85163,-1.41128 2.75827,-2.14037 0.50362,-0.41702 1.07751,-1.06897 1.8041,-0.82994 0.44103,0.14851 0.78707,0.45551 1.20341,0.65564 0.25605,0.21552 0.60875,0.118 0.91661,0.16575 0.28009,0.0123 0.56614,0.001 0.80648,0.1692 0.59084,0.29215 1.19657,0.5866 1.86629,0.62078 0.72934,0.28635 1.39663,0.72998 2.13833,0.99011 0.89719,0.40436 1.74278,0.96895 2.7327,1.12011 0.57323,0.22375 1.16182,0.40418 1.78089,0.43541 0.40606,-0.0377 1.04875,0.3349 1.30364,0.10156 -0.18983,-0.74719 -0.57456,-1.4345 -0.71453,-2.19883 -0.1049,-0.63285 -0.23468,-1.26492 -0.28891,-1.90439 0.0583,-0.897 -0.3305,-1.72871 -0.42736,-2.60483 -0.0583,-1.00561 -0.0956,-2.0152 -0.30504,-3.00377 -0.13617,-1.5919 -0.27326,-3.18431 -0.46593,-4.77057 -0.14366,-1.2488 -0.11111,-2.50716 -0.20294,-3.75858 -1.76335,0.0266 -3.5116,0.27293 -5.26147,0.46926 -1.36154,0.20904 -2.71201,0.49435 -4.07611,0.68561 -0.82642,0.11258 -1.69044,-0.029 -2.49216,0.23247 -0.25229,0.13388 -0.6063,0.21429 -0.80934,0.38691 -0.0127,0.65805 0.049,1.32534 0.23636,1.95327 -0.1351,0.73982 0.17774,1.47329 0.33727,2.1892 0.15181,0.68934 0.52242,1.30624 0.61801,2.01147 0.27705,1.06452 0.33316,2.16774 0.39793,3.26056 -0.0571,0.49518 0.18062,1.18689 -0.3245,1.49666 -0.43962,0.34998 -0.94998,0.62688 -1.32862,1.04667 -0.35997,0.4904 -0.85944,0.85132 -1.2646,1.30208 -0.76078,0.6617 -1.42648,1.43658 -2.29115,1.97151 -0.71342,0.51711 -1.394821,1.07885 -2.163913,1.51521 -1.517899,0.9836 -3.018993,1.99472 -4.479789,3.06056 -1.24918,0.7684 -2.577703,1.41351 -3.775653,2.26175 -1.195477,1.03549 -2.61245,1.76524 -3.84619,2.75057 -1.099046,0.84538 -2.044672,1.8837 -3.208086,2.64794 -0.890418,0.65668 -1.826744,1.24861 -2.709795,1.91588 -0.949539,0.65979 -1.843363,1.39637 -2.811154,2.03098 -0.747114,0.54436 -1.409898,1.19672 -2.197565,1.68758 -1.079549,0.84417 -2.312379,1.47151 -3.353012,2.36934 -0.935456,0.68821 -1.834506,1.42243 -2.721447,2.17148 -0.6285,0.52788 -1.341402,0.93353 -2.033356,1.36751 -1.155769,0.77451 -2.237944,1.65375 -3.420949,2.38953 -1.8338,1.15575 -3.562793,2.46599 -5.365532,3.66716 -0.492484,0.37587 -1.019706,0.73183 -1.4089,1.21959 0.0043,0.42284 0.494004,0.49647 0.761978,0.22457 z m 56.175243,-32.29693 c -0.79228,-0.13897 -1.58202,-0.32656 -2.32438,-0.6359 -0.93223,-0.2235 -1.85932,-0.46239 -2.78241,-0.71774 -0.73035,-0.071 -1.42944,-0.38535 -2.03035,-0.79659 -0.4168,-0.46004 -0.30725,-1.13588 -0.54436,-1.68109 0.15454,-0.82415 0.01,-1.68226 -0.0955,-2.50972 -0.14453,-0.85494 -0.17467,-1.74558 -0.51643,-2.55086 0.22144,-0.48302 0.90768,0.0598 1.30001,0.0889 1.21752,0.34005 2.50094,0.24058 3.73295,0.47824 0.8311,0.23209 1.66507,0.45288 2.4624,0.78816 0.49164,0.25165 1.16949,0.15539 1.50333,0.66466 0.284,0.51138 0.29104,1.12817 0.42226,1.68979 0.21207,1.15496 0.34205,2.32753 0.26222,3.50249 0.0166,0.62239 -0.0805,1.42815 -0.75312,1.67868 -0.20771,0.0739 -0.42554,0.0321 -0.63661,0.001 z m 0.67311,-0.49019 c 0.43948,-0.495 0.25102,-1.20444 0.30653,-1.80708 0.0519,-0.54274 -0.13939,-1.04143 -0.0691,-1.57 -0.14146,-0.90427 -0.24123,-1.82661 -0.51321,-2.70191 -0.35466,-0.49654 -1.09054,-0.28505 -1.55246,-0.65799 -0.84515,-0.33142 -1.72305,-0.58507 -2.61065,-0.76873 -1.21203,-0.0959 -2.43973,-0.13967 -3.61603,-0.47989 -0.59893,-0.20149 -0.0713,0.75889 -0.12413,1.1062 0.18722,1.12584 0.31328,2.25966 0.35127,3.40061 0.0843,0.5068 -0.009,1.12629 0.3443,1.5346 0.51886,0.36721 1.1359,0.57653 1.76428,0.63957 0.93553,0.30213 1.8906,0.53324 2.84805,0.75732 0.66484,0.24021 1.33454,0.47327 2.03659,0.58567 0.26591,0.0324 0.60155,0.15492 0.83454,-0.0384 z m -1.23625,-0.45471 c -0.75807,-0.1519 -1.54004,-0.2627 -2.24511,-0.59711 -0.3101,-0.45114 -0.13087,-1.06866 -0.27173,-1.58553 -0.21188,-1.22031 -0.50278,-2.4264 -0.71661,-3.64607 -0.29615,-0.31084 0.003,-1.04377 0.36581,-0.49656 0.60301,0.27162 1.27234,0.37472 1.89519,0.60104 0.64009,0.0221 1.04997,0.51116 1.06058,1.13537 0.28171,1.35019 0.55047,2.70783 0.67212,4.08306 0.0153,0.32225 -0.34845,0.26722 -0.4467,0.55267 -0.10271,0.0469 -0.21276,-0.0338 -0.31355,-0.0469 z m 0.37254,-0.49399 c -0.0578,-0.5766 -0.0548,-1.34322 -0.85431,-1.25552 -0.51124,-0.0476 -1.0846,-0.30015 -1.56558,-0.13178 -0.004,0.63458 0.88692,0.44133 1.30848,0.59443 0.19138,0.0601 0.88777,0.0605 0.78519,0.24684 -0.67492,-0.0252 -1.33483,-0.20372 -2.00267,-0.26609 -0.13601,0.22504 -0.0266,0.47631 0.25045,0.47618 0.65835,0.24806 1.36406,0.3124 2.04084,0.47897 0.0632,-0.008 0.0456,-0.11173 0.0376,-0.14303 z m -0.21121,-1.38545 c -0.14558,-0.47753 0.0677,-1.32671 -0.6678,-1.17421 -0.54508,-0.13018 -1.12916,-0.0941 -1.65628,-0.28307 0.25752,-0.3229 1.08315,0.13132 1.5469,0.0932 0.38086,0.21551 0.79469,-0.0692 0.37343,-0.35784 -0.70704,-0.11633 -1.4166,-0.25073 -2.13162,-0.29421 0.034,0.35325 -0.0108,1.19238 0.50079,1.23308 0.60884,0.12156 1.24736,0.0882 1.84384,0.25961 -0.11695,0.35419 -0.85094,-0.097 -1.19459,-0.002 -0.22939,-0.0608 -1.23948,-0.1251 -0.70633,0.20635 0.65241,0.1264 1.30193,0.27949 1.96023,0.36947 0.0215,-0.003 0.13231,0.009 0.13143,-0.0507 z m -0.37763,-2.05102 c -0.35913,-0.34462 -1.02344,-0.25368 -1.51447,-0.36279 -0.25171,-0.0714 -1.15167,-0.0765 -0.4893,0.15602 0.64769,0.16551 1.31762,0.30533 1.98599,0.30979 l 0.0206,-0.0217 -0.003,-0.0813 z m -0.0845,-0.46589 c -0.0306,-0.596 -0.89249,-0.43245 -1.31192,-0.60363 -0.40554,-0.0348 -1.3414,-0.44488 -0.95514,0.3078 0.50684,0.23402 1.10054,0.22581 1.64559,0.33543 0.16855,-0.0376 0.62066,0.22612 0.62147,-0.0396 z m -0.16718,-0.68064 c -0.46944,-0.25253 -1.01684,-0.35337 -1.52345,-0.52552 -0.27093,-0.0794 -1.13456,-0.40397 -0.66458,0.17033 0.62186,0.25183 1.3124,0.292 1.96998,0.40912 0.0516,-0.006 0.24189,0.0498 0.21805,-0.0539 z m -2.85243,3.89447 c -0.41501,-0.0344 -0.99632,-0.10281 -1.46343,-0.25618 -0.41002,-0.14058 -1.40537,-0.0907 -1.21065,-0.70612 -0.0144,-0.80282 -0.20256,-1.59413 -0.20541,-2.39978 -0.0417,-0.78231 -0.16687,-1.55636 -0.31558,-2.32285 0.14892,-0.67203 1.07603,-0.0392 1.53837,-0.026 0.32063,-0.049 1.06406,0.53243 0.42885,0.5638 -0.48606,-0.10686 -1.0782,-0.41119 -1.52093,-0.32266 0.44089,0.35036 1.12431,0.38844 1.67699,0.52103 0.21553,0.008 0.39479,-0.58451 0.56307,-0.0839 0.19908,1.11149 0.40566,2.22278 0.54479,3.34461 0.0747,0.54725 0.2543,1.07563 0.31809,1.62341 0.008,0.19675 -0.27286,0.20447 -0.35416,0.0647 z m -0.15183,-0.4891 c -0.36146,-0.44801 -1.09049,-0.30622 -1.6172,-0.42952 -0.26643,-0.0866 -0.65219,0.0208 -0.17561,0.13735 0.6019,0.0954 1.18984,0.33067 1.79657,0.35262 l -0.004,-0.0605 z m -0.13478,-0.55419 c -0.29565,-0.5358 -1.12099,-0.31651 -1.64269,-0.47203 -0.57853,-0.0525 -0.0513,-0.34729 0.22658,-0.17053 0.38639,-0.0165 1.22706,0.39361 1.32881,-0.0465 -0.42826,-0.35416 -1.08544,-0.23249 -1.61508,-0.32559 -0.23006,-0.0377 -0.44534,-0.0609 -0.33279,0.23608 -0.0221,0.41917 0.10665,0.8046 0.58054,0.64129 0.45379,0.15144 1.03052,0.32368 1.46756,0.20865 l -0.013,-0.0713 z m -0.19283,-1.25601 c -0.20973,-0.44632 -1.08697,-0.18003 -1.54999,-0.33014 -0.26489,-0.1067 -0.58199,0.0739 -0.24558,0.2815 0.58466,0.10148 1.18779,0.25791 1.78073,0.18877 l 0.019,-0.0481 -0.004,-0.0921 z m -0.0718,-0.57661 c -0.54962,-0.22294 -1.18843,-0.28808 -1.78262,-0.39792 -0.41086,0.18184 0.3427,0.50936 0.60381,0.41806 0.29752,-0.0731 1.11347,0.30919 1.17881,-0.0201 z m -0.0688,-0.32675 c 0.0313,-0.68528 -1.0073,-0.32028 -1.44882,-0.53598 -0.25962,-0.0658 -0.53268,-0.0904 -0.38836,0.26203 0.61425,-0.0345 1.22462,0.28327 1.83718,0.27395 z m -0.12749,-0.75008 c -0.14301,-0.43654 -0.90792,-0.20107 -1.30103,-0.41154 -0.38055,-0.279 -0.65219,0.11638 -0.38511,0.33961 0.56054,0.0773 1.12148,0.15195 1.68064,0.23872 0.0587,-0.0307 -0.0517,-0.16263 0.005,-0.16679 z m -0.0653,-0.45331 c -0.3064,-0.51713 -1.1545,-0.3841 -1.69063,-0.60996 -0.36037,0.32003 0.58462,0.41996 0.86697,0.48398 0.25393,-0.0103 0.65137,0.2753 0.82366,0.12598 z m -4.39199,-6.77564 c -0.48303,-0.29583 0.19999,-0.72224 0.36584,-0.23033 0.20524,0.26097 -0.20569,0.44561 -0.36584,0.23033 z m 6.48052,-0.35829 c -0.46837,-0.1633 -0.16772,-1.03818 0.17268,-0.5142 0.11265,0.31052 0.9502,-0.25211 0.65969,0.34364 -0.22028,0.18602 -0.55701,0.26357 -0.83237,0.17056 z m -3.27359,-0.0875 c -0.52046,-0.43503 0.23504,-0.81347 0.48976,-0.27663 0.31314,0.39336 -0.27451,0.43538 -0.48976,0.27663 z m 6.51906,-0.60086 c -0.75811,-0.50394 0.49449,-1.12068 0.62316,-0.281 0.001,0.3128 -0.39418,0.39188 -0.62316,0.281 z m 5.65727,16.76148 c 0.39648,-0.29945 0.97007,0.24151 1.21752,-0.0238 -0.19862,-0.77183 -0.4355,-1.53586 -0.53825,-2.32922 -0.43477,-1.67855 -1.11744,-3.30834 -1.24004,-5.05549 -0.19036,-1.70995 -0.54098,-3.40008 -0.66233,-5.11756 -0.18306,-0.87997 -0.28668,-1.77237 -0.31857,-2.67085 -0.0691,-1.10031 -0.13883,-2.20074 -0.23751,-3.29887 -0.40737,0.0273 -0.83432,-0.0146 -1.22218,0.11693 -0.28515,0.6922 0.71972,0.74963 0.82263,1.39059 0.23847,0.20893 0.23847,0.91566 -0.171,0.56136 -0.17639,-0.18692 -0.43857,-1.1292 -0.64875,-0.74091 0.0144,2.24761 0.42209,4.46693 0.5513,6.70763 0.0714,0.91288 0.30271,1.80657 0.30631,2.72633 4.7e-4,0.74477 0.12531,1.47796 0.35249,2.18617 -0.0236,0.54859 0.62491,0.1693 0.81323,0.6599 0.22719,0.32442 0.98006,0.90124 0.51136,1.21627 -0.41478,-0.28438 -0.60149,-0.83658 -1.02775,-1.13683 -0.21556,-0.29267 -0.13966,0.0945 -0.15905,0.25933 -0.0407,0.63737 0.16632,1.25179 0.21769,1.88275 0.1446,0.89876 0.59563,1.70414 0.82599,2.57716 0.0867,0.31255 0.40117,0.11918 0.60691,0.0891 z M 120.4736,132.909 c -0.16068,-0.23973 -0.87864,-0.83088 -0.23659,-0.87561 0.28486,0.28418 1.0478,0.90285 0.61114,1.2306 -0.17678,-0.0348 -0.26473,-0.23293 -0.37455,-0.35499 z m 0.0453,-1.04201 c -0.10394,-0.36952 -0.98526,-0.8051 -0.45964,-1.08483 0.37523,0.13499 0.96804,0.80767 0.69117,1.17581 -0.0874,0.025 -0.17685,-0.0277 -0.23153,-0.091 z m -0.23811,-3.80801 c -0.40397,-0.41898 -0.59774,-1.03356 -1.11179,-1.34306 -0.15415,-0.63891 0.71337,-0.1659 0.7835,0.18504 0.12641,0.29669 0.96208,1.04237 0.32829,1.15802 z m -0.54923,-2.47272 c -0.24461,-0.46679 -0.66433,-0.85756 -0.8964,-1.28383 0.41498,-0.59314 0.80079,0.45096 1.03959,0.7596 0.22934,0.18015 0.29586,0.85145 -0.14319,0.52423 z m -0.64365,-2.83563 c -0.11847,-0.2779 -0.84471,-1.01224 -0.12808,-0.89148 0.2406,0.30207 0.94706,1.035 0.44965,1.29107 -0.17461,-0.0437 -0.22796,-0.27024 -0.32157,-0.39959 z m 0.0393,-1.13601 c -0.0593,-0.38992 -0.91245,-0.95819 -0.29388,-1.17274 0.28613,0.20579 0.88274,1.01451 0.38813,1.23082 l -0.0499,-0.0188 -0.0444,-0.0393 z m -0.0666,-2.19363 c -0.12846,-0.41423 -0.84463,-0.84538 -0.54515,-1.23634 0.44471,0.091 0.92052,0.83526 0.80663,1.27529 -0.0789,0.0686 -0.20077,0.0388 -0.26148,-0.0389 z m 15.4341,12.2324 c -0.40437,-0.29802 -1.0731,-0.31424 -1.33681,-0.69413 0.0539,-0.61077 0.59149,-1.06037 0.82877,-1.61569 0.32058,-0.56415 0.62736,-1.13923 1.07807,-1.61474 0.29777,-0.49676 0.79645,-0.82289 1.06022,-1.34275 0.10618,-0.28676 0.56184,-0.61521 0.44173,-0.90959 -0.28918,-0.34685 0.4607,-0.32589 0.42763,-0.74292 0.23942,-0.35693 0.5578,-0.84544 0.79036,-1.05363 -0.45474,-0.52205 -1.05948,-0.88578 -1.55735,-1.35416 0.0982,-0.57312 0.79128,0.15071 1.04939,0.32995 0.4965,0.25671 0.73183,0.94017 1.27196,1.01181 0.58593,-0.19325 1.3727,0.54352 0.77722,0.98428 -0.31532,-0.14845 -0.1365,-0.71538 -0.67052,-0.55478 -0.29931,0.0485 -0.59419,-0.11343 -0.76487,-0.2242 0.0652,0.48509 -0.81034,1.02865 0.0569,1.18324 0.38943,0.0952 1.15268,0.78379 1.28778,0.15126 -0.32378,-0.32216 -1.08973,-0.2653 -1.23018,-0.64902 0.49483,-0.0185 0.9667,0.44485 1.42965,0.33676 0.48538,-0.49138 0.29319,-1.20014 -0.15503,-1.6245 -0.28029,-0.50954 -0.94622,-0.47576 -1.28284,-0.87582 -0.27735,-0.51894 0.46184,-0.48959 0.63699,-0.11508 0.44998,0.43324 1.29122,0.6118 1.46422,1.24281 0.12984,0.58709 -0.0537,1.17565 -0.37782,1.66964 -0.32235,0.48565 -0.40227,1.16819 -0.96447,1.45527 -0.42288,0.53102 -0.87434,1.06412 -1.16693,1.68062 0.23807,0.25381 0.27676,0.26599 -0.0869,0.2142 -0.33083,0.33844 -0.75521,0.62456 -0.99944,1.04652 -0.43427,0.70473 -0.90186,1.38926 -1.31854,2.10385 -0.18028,0.17596 -0.48812,0.0324 -0.68923,-0.0392 z m 0.46485,-0.37684 c 0.13066,-0.36358 -0.72845,-0.54106 -1.0167,-0.75748 -0.36024,-0.0455 -0.40389,0.42651 -0.005,0.40952 0.32654,0.10007 0.67004,0.46039 1.0221,0.34796 z m 0.37689,-0.5788 c 0.33216,-0.53012 -0.69865,-0.82405 -1.06695,-0.96945 -0.68118,0.56657 0.23943,0.90755 0.69473,1.13334 0.19692,0.15508 0.27997,0.0201 0.37222,-0.16389 z m 0.46831,-0.71168 c 0.28808,-0.55469 -0.78507,-0.6995 -1.13792,-0.97081 -0.56394,0.59205 0.45733,0.82405 0.82318,1.10236 0.13143,0.12244 0.24349,-0.0267 0.31474,-0.13155 z m 0.35087,-0.55214 c -0.0212,-0.45844 -0.89071,-0.68338 -1.31115,-0.76822 0.13339,0.36323 0.83813,0.71677 1.2555,0.83218 l 0.0556,-0.064 z m 0.42087,-0.5553 c 0.395,-0.36728 -0.49863,-0.49621 -0.7466,-0.69492 -0.16678,-0.029 -0.38837,-0.32264 -0.50464,-0.10776 -0.55555,0.48195 0.56196,0.65491 0.86085,0.92477 0.1509,0.13812 0.2743,-0.0332 0.39039,-0.12209 z m 0.43356,-0.41583 c 0.0178,-0.49158 -0.91058,-0.66688 -1.33913,-0.80297 -0.0528,0.43072 0.84566,0.57861 1.16896,0.86503 0.064,0.0835 0.12859,-0.0345 0.17017,-0.0621 z m 0.14026,-0.63244 c -0.31368,-0.21409 -1.06793,-0.76003 -1.22305,-0.39026 0.42544,0.17618 0.93914,0.72057 1.3558,0.56933 0.0127,-0.0845 -0.097,-0.12413 -0.13275,-0.17907 z m 0.38297,-0.22735 c -0.31197,-0.29501 -0.89165,-0.64962 -1.30439,-0.61294 0.37398,0.1829 0.93521,0.81239 1.30482,0.61294 z m 0.35374,-0.46462 c 0.38246,-0.46216 -0.66742,-0.57225 -0.95689,-0.77745 -0.56244,-0.2234 -0.42961,0.65504 0.054,0.66072 0.291,0.11099 0.66879,0.55204 0.9029,0.11673 z m 0.46507,-0.61869 c 0.25764,-0.4636 -0.70464,-0.47488 -0.99145,-0.69619 -0.39068,-0.3624 -0.7273,0.398 -0.18475,0.42733 0.35558,0.0516 0.91009,0.70126 1.1762,0.26886 z m 0.43217,-0.47979 c 0.57765,-0.45699 -0.61658,-0.59912 -0.90231,-0.80038 -0.32282,-0.23928 -0.81928,-0.23309 -0.67271,0.28485 0.45557,0.22889 1.00769,0.62237 1.50327,0.55881 z m -6.15907,4.63928 c -0.52878,-0.29763 -1.06165,-0.62658 -1.64753,-0.79329 -0.35891,0.02 -0.84091,-0.90031 -0.19147,-0.67107 0.69731,0.3828 1.4111,0.73827 2.10367,1.12876 0.21788,0.18541 -0.0419,0.50944 -0.26467,0.3356 z m -9.57434,-4.30553 c -0.11373,-0.3576 -0.32964,-0.68242 -0.39584,-1.06587 0.43274,-0.47319 1.36553,0.18484 0.97666,0.74352 -0.1286,0.14844 -0.34971,0.4897 -0.58082,0.32235 z m 0.23555,-0.66776 c -0.20142,-0.21428 0.009,0.41014 -1e-4,1e-4 z m 3.74478,-2.64826 c -0.58062,-0.24017 -0.12891,-1.29326 0.41398,-0.97605 0.40951,0.2486 0.21781,1.32784 -0.33262,1.0285 z m 0.19834,-0.51649 c -0.0831,-0.0324 0.0314,0.19674 0,0 z m 8.19121,0.42675 c -0.26725,-0.26596 0.0178,-1.23331 0.34177,-0.68786 -0.028,0.22154 0.077,0.89451 -0.34177,0.68786 z m 1.94237,-0.79136 c -0.39937,0.21638 -0.91522,-0.5338 -0.33368,-0.53777 0.35355,-0.0486 1.11512,0.58387 0.33368,0.53777 z m -9.80375,-4.70849 c -0.48148,-0.34102 0.13257,-1.529 0.54815,-0.89795 0.0967,0.32969 -0.36498,0.40437 -0.0364,0.67945 -0.0261,0.22794 -0.32829,0.3363 -0.51175,0.2185 z m -4.77628,-0.22477 c -0.67518,-0.24216 0.17063,-1.16608 0.40728,-0.41442 0.29028,0.0148 0.60435,0.33297 0.14696,0.47522 -0.1837,0.052 -0.38317,0.0159 -0.55424,-0.0608 z m 7.09345,-0.0391 c -0.58163,-0.31183 0.30182,-1.0892 0.4448,-0.36259 0.28641,0.38803 -0.13358,0.55606 -0.4448,0.36259 z m 3.38827,-0.1764 c -0.45698,-0.30444 0.17639,-0.8945 0.32797,-0.32707 0.27501,0.28945 -0.0799,0.69761 -0.32797,0.32707 z m 2.729,-0.0975 c -0.36597,-0.47788 0.61246,-1.25877 0.61349,-0.44512 -0.0974,0.16341 -0.39118,0.66111 -0.61349,0.44512 z m -30.83316,-1.28512 c -0.12787,-0.55386 0.85464,-0.79331 0.84202,-0.16271 -0.2126,0.0982 -0.66251,0.42541 -0.84202,0.16271 z m 2.85503,-0.11835 c -0.50008,-0.59833 0.89147,-0.53857 0.52485,0.003 -0.14368,0.13209 -0.3788,0.10987 -0.52485,-0.003 z m 28.06879,-0.41318 c -0.52799,-0.0759 -0.4201,-1.18778 0.0489,-0.65861 -0.009,0.34651 0.89468,0.3122 0.42226,0.71945 -0.15569,0.0725 -0.3284,0.007 -0.47112,-0.0608 z m -6.80667,-0.0884 c -0.33065,-0.49792 0.54829,-0.99289 0.58488,-0.30089 -0.0961,0.16322 -0.38873,0.55591 -0.58488,0.30089 z m 3.8269,-0.10028 c -0.46569,-0.59111 0.63727,-0.61652 0.48382,0.004 -0.13114,0.17475 -0.35778,0.16893 -0.48382,-0.004 z m -21.10547,-0.15246 c -0.47123,-0.16999 -0.34658,-1.05203 0.17577,-0.69944 -0.11975,0.39213 0.6776,0.42066 0.27742,0.7895 -0.15737,0.0304 -0.32406,0.0118 -0.45319,-0.0901 z m 15.63749,-0.0345 c -0.59722,-0.24524 0.17334,-1.24945 0.27641,-0.45069 0.0313,0.185 0.051,0.63595 -0.27641,0.45069 z m -5.31091,-0.0638 c -0.70332,-0.25124 0.0269,-1.38346 0.41002,-0.59124 0.49207,0.39215 0.11812,0.84679 -0.41002,0.59124 z m -3.79986,-0.32956 c -0.15246,-0.27526 -0.90346,-0.98229 -0.15007,-0.92227 0.22832,0.12159 0.7057,0.98784 0.15007,0.92227 z m -3.59788,-0.0514 c -0.52226,-0.46008 0.57183,-0.86503 0.47911,-0.20208 -0.0765,0.16477 -0.30552,0.29111 -0.47911,0.20208 z m 3.87486,-1.42644 c -0.10777,-0.40829 -0.60897,-0.62791 -0.61038,-1.01728 0.46178,-0.45852 0.93737,0.56931 0.84738,0.95198 -0.0441,0.0889 -0.15363,0.11376 -0.237,0.0653 z m -6.6919,-2.87607 c -0.6901,-0.20197 0.22047,-1.42199 0.28594,-0.6337 -0.33423,0.24939 0.4531,0.61024 -0.1111,0.71789 -0.07,0.0143 -0.11081,-0.0955 -0.17484,-0.0842 z m -2.32915,-0.59418 c -0.51972,-0.54282 0.43465,-1.07527 0.44253,-0.27871 0.34857,0.26904 -0.24682,0.56818 -0.44253,0.27871 z m 3.79756,-0.21147 c -0.52749,-0.17286 -0.0461,-1.22043 0.17817,-0.51686 0.0526,0.24251 0.73739,0.0322 0.40702,0.4705 -0.1601,0.13314 -0.40532,0.14501 -0.58519,0.0464 z m 10.01352,-0.11476 c -0.62599,-0.0192 -1.00458,-0.5465 -1.08537,-1.12081 -0.38865,-1.34267 -0.89483,-2.64979 -1.42291,-3.94306 -0.21317,-0.63235 -0.5011,-1.40151 -0.11162,-2.01858 0.42871,-0.39087 1.06896,-0.0636 1.59561,-0.17006 1.07774,-0.0203 2.14859,-0.16219 3.22723,-0.16326 1.16673,-0.0678 2.35271,-0.22398 3.51285,-0.0178 0.69054,0.0635 0.97981,0.74727 1.18529,1.31254 0.44978,1.09871 0.84028,2.22527 1.05585,3.39514 0.12054,0.61463 0.35481,1.20094 0.47841,1.8121 0.1022,0.67434 -0.81647,0.68504 -1.27501,0.74944 -2.20745,0.16683 -4.42398,0.15229 -6.63523,0.2329 -0.17692,-0.004 -0.35273,-0.0301 -0.5251,-0.0685 z m 3.32794,-0.42088 c 1.50464,-0.0669 3.03092,0.0165 4.51448,-0.28188 0.25406,-0.38995 -0.1265,-0.97241 -0.17241,-1.4243 -0.19216,-0.80632 -0.33671,-1.62429 -0.62212,-2.40489 -0.26425,-0.79159 -0.54607,-1.59034 -0.95958,-2.31648 -0.62191,-0.33512 -1.36355,-0.22786 -2.04442,-0.26307 -1.09627,0.0422 -2.19014,0.14217 -3.2874,0.17677 -0.97788,0.0984 -1.96177,0.10006 -2.94142,0.15454 -0.493,0.32573 -0.0162,1.14322 0.0863,1.62246 0.57805,1.41576 1.11311,2.85191 1.5385,4.32118 0.25985,0.5863 1.06388,0.45858 1.59632,0.47743 0.76372,-0.0263 1.5278,-0.0441 2.29171,-0.0618 z m -3.75666,-0.45419 c -0.2059,-0.68311 -0.45056,-1.3716 -0.62061,-2.07226 -0.24714,-0.87345 -0.55297,-1.72837 -0.79043,-2.60378 -0.0241,-0.35795 -0.73156,-0.54894 -0.16337,-0.83435 0.79504,-0.26749 1.65776,-0.18057 2.48485,-0.24024 0.55542,0.0938 1.49491,-0.3978 1.68137,0.38781 0.40162,1.335 0.83857,2.65939 1.18529,4.0105 0.0607,0.39442 0.56401,1.21367 -0.11925,1.25715 -1.11083,0.0631 -2.22774,0.0239 -3.33562,0.13115 -0.10195,0.049 -0.24835,0.0772 -0.32223,-0.036 z m 3.42184,-0.49736 c 0.33638,-0.17588 -0.19393,-0.86288 -0.19023,-1.22871 -0.0195,-0.27569 -0.15475,-0.40361 -0.42907,-0.34932 -0.95113,0.0196 -1.89444,0.18455 -2.83775,0.28687 -0.12114,0.2973 0.0629,0.61667 0.39105,0.47782 0.87152,-0.0381 1.74175,-0.20219 2.61414,-0.15343 0.43486,0.31104 -0.57028,0.20514 -0.7894,0.25151 -0.68051,0.0311 -1.35638,0.14201 -2.0382,0.14259 0.0651,0.21212 0.0444,0.65922 0.32222,0.64268 0.98575,-0.0205 1.97258,-0.0212 2.95724,-0.07 z m -2.08307,-1.70331 c 0.56272,-0.095 1.14103,-0.0834 1.7011,-0.16093 -0.0919,-0.64215 -0.3493,-1.25785 -0.56841,-1.86699 -1.02965,0.0696 -2.06533,0.17849 -3.0779,0.38601 -0.31226,0.22166 0.19478,0.56289 0.45741,0.29497 0.78051,-0.16887 1.58766,-0.12505 2.36979,-0.28465 0.60676,0.14165 -0.41345,0.3639 -0.61962,0.34265 -0.69256,0.0838 -1.43104,0.0416 -2.0784,0.32319 -0.0304,0.68345 0.81694,0.26014 1.22283,0.30102 0.63846,-0.0456 1.28108,-0.19448 1.92111,-0.10809 0.0384,0.3614 -0.8266,0.14521 -1.13095,0.27645 -0.58936,0.0834 -1.19236,0.087 -1.77584,0.1916 -0.17941,0.67953 0.73121,0.37727 1.12829,0.36113 0.1503,-0.0178 0.3006,-0.0369 0.45059,-0.0564 z m -1.75304,-1.93717 c 0.92588,-0.16158 1.86307,-0.24579 2.79493,-0.36593 0.0295,-0.62323 -0.72925,-0.11653 -1.10805,-0.22118 -0.72304,0.0203 -1.44339,0.10896 -2.16051,0.17404 -0.019,0.31542 0.082,0.61486 0.47363,0.41307 z m 1.44621,-0.81566 c 0.32115,-0.13932 1.42311,0.20894 1.10312,-0.39112 -0.49038,-0.0977 -1.02147,0.0688 -1.53016,0.0285 -0.55967,0.015 -1.13055,-0.01 -1.67999,0.10313 -0.0973,0.34457 0.11638,0.41971 0.39432,0.35169 0.57119,-0.025 1.14202,-0.0578 1.71271,-0.0922 z m 3.57909,4.72154 c -0.56764,-0.0527 -0.50018,-0.82572 -0.69215,-1.23731 -0.20642,-0.55915 -0.3129,-1.11298 -0.44816,-1.69191 -0.25068,-0.85831 -0.58645,-1.68967 -0.85166,-2.54223 0.21844,-0.46119 1.08621,-0.15526 1.55906,-0.25784 0.69826,0.005 1.39939,-0.0166 2.0954,0.0422 0.42858,0.40189 0.15612,1.15888 0.55183,1.62053 0.5759,0.97812 0.86244,2.0837 1.12804,3.17624 0.26792,0.43526 0.23875,0.97391 -0.41928,0.82424 -0.97464,6.4e-4 -1.94966,0.0946 -2.92308,0.0661 z m 1.54709,-0.43179 c 0.41641,-0.0953 1.28724,0.14609 1.4151,-0.29778 -0.22816,-0.64759 -1.09342,-0.28812 -1.61261,-0.38245 -0.45965,0.0898 -1.23826,-0.13933 -1.50205,0.26253 0.0804,0.80205 1.04371,0.31013 1.55721,0.41614 l 0.08,2e-4 0.0623,0.001 z m -0.69273,-0.89231 c 0.60004,-0.033 1.20244,-0.0226 1.80164,-0.0592 0.15147,-0.11457 0.05,-0.74759 -0.18871,-0.73525 -0.95917,0.027 -1.92288,0.0464 -2.87428,0.17268 -0.0738,0.5284 0.24623,0.83299 0.75165,0.64881 0.1698,-0.0107 0.33982,-0.0196 0.5097,-0.027 z m 0.66964,-0.99552 c 0.32076,-0.10939 1.3458,0.15877 0.81039,-0.41094 -0.5448,-0.25031 -1.17109,-0.0392 -1.74306,-0.0113 -0.31642,0.12823 -1.39656,-0.0769 -1.07291,0.48818 0.65964,0.062 1.34346,-0.0258 2.00558,-0.0659 z m -1.016,-0.63986 c 0.57681,-0.0599 1.15389,-0.11764 1.73191,-0.16467 -0.14924,-0.53293 -0.81252,-0.29497 -1.21991,-0.30731 -0.5869,0.0685 -1.19285,0.0951 -1.75935,0.25754 -0.0802,0.65343 0.89304,0.13812 1.24735,0.21444 z m -0.50667,-0.60343 c 0.62127,-0.11213 1.26653,-0.0797 1.88131,-0.18886 -0.13793,-0.63271 -0.9684,-0.25988 -1.4321,-0.30634 -0.42464,0.11368 -1.23576,-0.0796 -1.40606,0.31482 0.051,0.50296 0.65337,0.15331 0.95685,0.18038 z m -0.18606,-0.68803 c 0.57167,-0.0708 1.15112,-0.0589 1.72129,-0.1379 0.17151,-0.60426 -0.20914,-1.10524 -0.85534,-0.93046 -0.6848,0.0143 -1.38149,-0.075 -2.05856,0.0419 -0.18409,0.47174 0.80535,0.24226 1.10701,0.31432 0.51211,0.0438 1.14305,-0.0658 1.57508,0.11908 -0.52976,0.26504 -1.21229,0.0553 -1.80071,0.11756 -0.44205,-0.0477 -0.95553,-0.0363 -0.65105,0.50058 0.17382,0.17518 0.61888,-0.0515 0.88231,-0.0158 l 0.08,-0.009 z m -16.53154,4.22438 c -0.49806,-0.0914 -0.88565,-1.04742 -0.38945,-1.28357 0.06,-0.19768 -0.49042,-0.57057 -0.17461,-0.80255 0.49585,0.11459 0.67641,1.0012 1.36842,0.69358 0.18128,-0.28695 0.89052,-0.30422 0.54929,0.12161 -0.38497,0.48433 -1.05575,0.2943 -1.5362,0.20531 -0.13144,0.73407 0.7408,0.87881 1.23525,0.59208 0.42459,-0.11205 0.94632,-0.33391 0.77956,-0.85816 0.40202,-0.31843 0.54036,-0.65945 0.0918,-1.00993 -0.18476,-0.22671 -0.92167,-0.71294 -0.22914,-0.73275 0.51672,0.23177 0.84638,0.7794 1.0448,1.28653 -0.12003,0.67469 -0.53281,1.34838 -1.20906,1.59075 -0.48134,0.15875 -1.02458,0.30814 -1.53063,0.1971 z m -1.52557,-0.18285 c -0.57836,-0.11582 -0.10432,-1.3834 0.16165,-0.5532 0.15634,0.25727 0.41806,0.72306 -0.16165,0.5532 z m 5.62035,-0.91505 c -0.23315,-0.31198 0.52444,-0.42045 -0.04,-0.58441 -0.34249,-0.80245 1.42449,0.13046 0.53147,0.53975 -0.14194,0.0811 -0.34671,0.16357 -0.49151,0.0447 z m 20.29537,-1.08373 c 0.0316,-0.50116 0.75893,-0.71737 1.1039,-1.04972 1.12927,-0.70407 2.2048,-1.49352 3.17742,-2.40386 1.14415,-1.01326 2.44201,-1.83028 3.6304,-2.787498 1.69054,-1.168932 3.31841,-2.424722 4.97575,-3.639395 1.54038,-1.222619 3.15989,-2.346158 4.62752,-3.658866 1.21976,-0.980858 2.29191,-2.131338 3.54662,-3.069656 1.47388,-1.227663 2.97412,-2.424308 4.43571,-3.66692 1.186,-0.940499 2.4475,-1.781454 3.62213,-2.735961 0.83624,-0.763665 1.74568,-1.439652 2.6037,-2.17783 1.35998,-0.981285 2.76019,-1.908977 4.17368,-2.812026 1.38397,-1.018159 2.79613,-1.999147 4.27118,-2.881499 0.94781,-0.61706 1.71974,-1.468078 2.70821,-2.027206 0.72368,-0.532009 1.32016,-1.216726 2.04893,-1.744907 0.59412,-0.538836 1.12264,-1.155014 1.81006,-1.584787 0.76307,-0.519832 1.57318,-0.966697 2.3456,-1.471447 0.71002,-0.01087 -0.28208,0.681221 -0.55678,0.79974 -0.9984,0.604631 -2.02799,1.190882 -2.83346,2.052539 -0.68315,0.66604 -1.46709,1.216805 -2.13762,1.896922 -0.60751,0.518387 -1.34498,0.862817 -1.91906,1.426986 -1.11431,1.041217 -2.52598,1.664228 -3.7409,2.568819 -0.96975,0.68981 -1.92036,1.407308 -2.94294,2.018961 -1.3796,0.937916 -2.79809,1.830524 -4.05107,2.938351 -1.02361,0.804732 -1.96312,1.713268 -3.04134,2.449009 -1.21377,0.895731 -2.42703,1.794251 -3.55875,2.793255 -1.48855,1.238471 -3.02918,2.415161 -4.48835,3.688207 -1.15448,1.090189 -2.3709,2.112092 -3.59562,3.121247 -1.42576,1.080302 -2.83021,2.18909 -4.27217,3.247553 -1.29393,0.951009 -2.56563,1.932635 -3.89318,2.837149 -1.31622,1.05951 -2.75987,1.95865 -3.99451,3.12003 -1.09518,1.03441 -2.42746,1.75688 -3.63143,2.64881 -0.11835,0.0589 -0.28948,0.20504 -0.42363,0.104 z m -20.28152,-0.78555 c -0.58954,-0.17319 -0.0923,-1.00718 0.24514,-0.41064 0.70088,-0.0146 0.1752,0.58957 -0.24514,0.41064 z m -1.34279,-0.5181 c -0.55478,-0.0871 -0.18311,-1.32891 0.0932,-0.56649 0.0159,0.35861 0.77229,-0.0621 0.46549,0.48373 -0.1293,0.20927 -0.36708,0.18994 -0.5587,0.0828 z m 2.38534,-3.68791 c -0.73265,-0.41241 0.6216,-0.59553 0.36388,0.0142 -0.0949,0.12157 -0.25618,0.038 -0.36388,-0.0142 z m 1.58309,-0.0434 c -0.64133,-0.27548 0.25435,-0.730946 0.38685,-0.17818 0.0396,0.25427 -0.22877,0.21554 -0.38685,0.17818 z m 1.62309,-0.16231 c -0.58962,0.0312 -0.4697,-0.707394 0.0693,-0.43958 0.48909,0.0733 0.44079,0.63248 -0.0693,0.43958 z m 1.50587,-0.1451 c -0.32359,-0.01 -0.87431,-0.539972 -0.24125,-0.512434 0.29361,0.09292 1.37698,0.324144 0.88699,0.703614 -0.22627,-0.01 -0.4363,-0.11532 -0.64574,-0.19118 z m 5.19496,0.0179 c -0.48582,-0.0127 -0.45222,-0.716865 0.0452,-0.4325 0.39283,-0.02156 0.84722,0.66252 0.19792,0.52365 -0.0825,-0.0265 -0.16316,-0.0582 -0.24314,-0.0911 z m -4.02246,-0.15597 c -0.59752,-0.0546 -0.21665,-0.708765 0.18293,-0.377378 0.59842,0.176278 0.32154,0.689918 -0.18293,0.377378 z m 1.91672,-0.008 c -0.31777,-2.3e-4 -0.83958,-0.408727 -0.32899,-0.564938 0.34887,-0.03205 1.21526,0.646828 0.48503,0.640248 l -0.0719,-0.0322 -0.0842,-0.0431 z m 0,-0.90119 c -0.40924,-0.100046 -0.58001,-0.934035 -0.005,-0.609801 0.2881,0.114715 0.76645,0.940691 0.16382,0.730055 l -0.076,-0.05199 -0.0832,-0.06827 z m -7.64233,-0.103267 c -0.21828,-0.405474 -0.51629,-0.760583 -0.84965,-1.001465 0.15223,-0.72058 0.81491,0.07242 0.96304,0.407581 0.19408,0.199655 0.45793,0.955983 -0.11339,0.593884 z m 7.67939,-0.738909 c -0.34644,-0.09073 -0.70532,-0.77244 -0.11653,-0.709529 0.32572,0.077 0.80413,1.062133 0.11653,0.709529 z m -7.90084,-1.093138 c -0.15706,-0.310635 -1.0857,-0.756614 -0.40802,-1.008396 0.44687,0.286932 0.81167,0.770855 1.01127,1.257117 -0.13513,0.431825 -0.48103,-0.08586 -0.60325,-0.248721 z m 8.34405,-0.08521 c -0.31377,-0.419514 -0.61752,-0.895233 -1.1138,-1.118442 -0.27185,-0.569587 0.66329,-0.274472 0.79854,0.05925 0.17605,0.223318 1.05601,1.086502 0.31526,1.059194 z m -9.05927,-1.582374 c -0.22382,-0.110364 -0.8125,-0.285279 -0.31384,-0.526846 0.47313,-0.253543 1.10001,0.815055 0.37814,0.581064 l -0.064,-0.05422 z m 1.01115,0.04441 c -0.54316,0.01267 -0.5872,-0.755092 0.0155,-0.458027 0.43553,-0.0671 0.88403,0.666404 0.21636,0.518728 -0.078,-0.01737 -0.15509,-0.0386 -0.23187,-0.0607 z m 1.67967,-0.245724 c -0.32197,0.01917 -0.81174,-0.486743 -0.29108,-0.566959 0.30522,0.01873 1.19131,0.520937 0.58333,0.668021 -0.10195,-0.01853 -0.19815,-0.05921 -0.29225,-0.101062 z m 7.59691,-0.02824 c -0.35455,0.03417 -0.81887,-0.499298 -0.27138,-0.573245 0.40604,-0.04068 1.04475,0.753241 0.33813,0.607739 l -0.0667,-0.03449 z m 1.20072,-9.7e-4 c -0.24766,-0.06189 -0.94807,-0.0089 -0.53972,-0.421503 0.30816,-0.25861 1.44442,0.204892 0.85423,0.504096 -0.10942,-0.0046 -0.21366,-0.04354 -0.31451,-0.08259 z m -7.55314,-0.09422 c -0.25198,-0.110118 -0.6972,-0.520611 -0.14895,-0.551374 0.42448,-0.106125 0.77638,0.90919 0.14895,0.551374 z m 3.14323,0.04972 c -0.27523,-0.117957 -0.61884,-0.562675 -0.0828,-0.589797 0.31924,0.0621 0.71517,0.787273 0.0828,0.589797 z m -1.08572,-0.06998 c -0.35309,0.04999 -1.14497,-0.547339 -0.53901,-0.694935 0.30962,0.07567 1.31128,0.459002 0.73198,0.762571 l -0.0887,-0.02055 -0.10432,-0.04709 z m 2.33484,-0.19183 c -0.6787,-0.222894 0.001,-0.721208 0.36706,-0.300246 0.34644,0.289778 -0.0994,0.488264 -0.36706,0.300246 z m -7.91462,-0.270154 c -0.33089,-0.03778 -0.72275,-0.431051 -0.26014,-0.647632 0.38729,-0.12949 1.00015,0.970151 0.26014,0.647632 z m 8.16926,-0.596217 c -0.32396,-0.05926 -0.75063,-0.63389 -0.16989,-0.565787 0.38698,-0.01688 0.86181,0.801632 0.16989,0.565787 z m -8.33582,-0.469096 c -0.16894,-0.573451 0.84071,-0.314562 1.20121,-0.458964 0.65052,-0.05697 1.29431,-0.218065 1.9451,-0.235241 0.29828,0.613644 -0.84957,0.40851 -1.20406,0.556421 -0.62382,0.06581 -1.257,0.207148 -1.87805,0.189039 l -0.0642,-0.05125 z m 9.29591,-0.01157 c -0.52306,-0.511971 0.54899,-0.490915 0.86553,-0.399482 0.30799,0.05818 1.27381,-0.134153 1.01568,0.423003 -0.57212,0.100918 -1.16705,-0.104853 -1.73711,0.0269 l -0.0652,-0.016 z m -3.50339,-0.0882 c -0.60737,0.140923 -0.5934,-0.580574 0.009,-0.411289 0.53809,0.03702 1.15449,-0.06244 1.63998,0.106283 -0.10958,0.591086 -1.06622,0.223634 -1.51958,0.309812 l -0.12905,-0.0048 z m 2.41427,-0.781831 c -0.0869,-0.345693 -0.9468,-0.413179 -0.4215,-0.784124 0.43374,-0.06843 1.12534,0.724311 0.74489,1.053838 -0.15203,-0.0063 -0.24167,-0.16315 -0.32339,-0.269714 z m -8.14046,-0.396646 c -0.42522,-0.07148 -0.68686,-1.039469 -0.0754,-0.705395 0.24225,0.168313 0.76663,0.819937 0.2203,0.811397 l -0.0674,-0.04772 z m 0.55753,-0.831273 c -0.16911,-0.474467 -1.31104,-0.80698 -0.86216,-1.329518 0.52706,0.07943 0.81127,0.676689 1.15797,1.040372 0.34859,0.351086 0.037,0.804883 -0.29581,0.289146 z m 7.86782,0.16093 c -0.25764,-0.457977 -0.90069,-0.718327 -0.94847,-1.249851 0.48791,-0.336906 0.8662,0.62922 1.17925,0.933301 0.17523,0.165005 -0.017,0.452937 -0.23078,0.31655 z m 0.13074,-1.195546 c -0.2103,-0.423436 -0.82531,-0.747291 -0.79893,-1.224412 0.5024,-0.2579 0.86753,0.67619 1.06321,1.054171 -0.0146,0.108836 -0.14826,0.257796 -0.26428,0.170241 z m -8.25627,-0.985839 c -0.18525,-0.26769 -1.08773,-0.501552 -0.52135,-0.839238 0.47376,0.145472 1.00425,0.565437 1.1264,1.046986 -0.16459,0.301688 -0.4613,-0.08556 -0.60505,-0.207748 z m 8.07736,-0.704272 c -0.18904,-0.450278 -0.73444,-0.589264 -0.94226,-0.91417 0.29406,-0.677057 0.93296,0.256081 1.18748,0.558478 0.30616,0.145368 0.34431,0.898798 -0.0832,0.542747 -0.0597,-0.05725 -0.1122,-0.121234 -0.16198,-0.187055 z m -9.31711,-0.693104 c -0.17577,-0.576839 0.80367,-0.509986 1.19903,-0.6057 1.23741,-0.104737 2.47831,-0.194354 3.70165,-0.418325 2.08374,-0.201783 4.18445,-0.194244 6.27444,-0.107433 0.36546,-0.01426 1.45869,0.09257 0.97422,0.614185 -0.51583,-0.228739 -1.12098,-0.20308 -1.68415,-0.233416 -1.80088,-0.02308 -3.60825,-0.03799 -5.40326,0.126342 -1.24255,0.208454 -2.49551,0.340907 -3.7523,0.426713 -0.44553,-0.01663 -0.88817,0.247517 -1.30963,0.197634 z m 1.13281,-1.575131 c -0.30586,-0.134253 -0.6316,-0.845596 -0.061,-0.652028 0.31771,0.176748 0.9322,0.753201 0.60408,1.076338 -0.23057,-0.04392 -0.37296,-0.280348 -0.54306,-0.42431 z m 7.60857,-0.183742 c -0.61182,-0.392457 0.36491,-0.78265 0.31181,-0.105535 -0.0432,0.123748 -0.20273,0.166164 -0.31181,0.105535 z m 0.46474,-0.393296 c -0.23009,-0.198304 -1.16817,-0.498281 -0.61027,-0.791109 0.26736,0.01105 1.35592,0.671199 0.61027,0.791109 z m -10.15997,-0.930049 c -0.59088,-0.710487 1.10044,-0.459042 0.80798,0.07783 -0.23286,-0.0024 -0.63014,0.125267 -0.80798,-0.07783 z m 14.82433,-0.06924 c -0.26591,-6.8e-5 -0.8129,-0.104732 -0.39816,-0.431242 0.33779,-0.283733 1.15009,0.411028 0.49542,0.479325 l -0.0973,-0.04804 z m -1.447,-0.05158 c -0.42765,0.106559 -0.63269,-0.513363 -0.12898,-0.498956 0.45796,-0.03343 0.89217,0.784905 0.12898,0.498956 z m -10.91626,-0.08581 c -0.42313,0.07918 -0.77761,-0.438579 -0.17354,-0.48176 0.44283,-0.05531 0.92703,0.679759 0.17354,0.48176 z m 1.43537,-0.135477 c -0.51155,-0.08707 -0.19193,-0.709112 0.19467,-0.387555 0.62174,0.141371 0.30173,0.720159 -0.19467,0.387555 z m 7.54123,-0.01198 c -0.41792,0.105271 -0.89187,-0.561114 -0.27774,-0.593364 0.30713,0.01792 0.99475,0.59266 0.27774,0.593364 z m -2.5477,-0.07186 c -0.4495,0.113505 -0.73045,-0.639712 -0.14399,-0.499106 0.40625,-0.06894 1.0063,0.670559 0.14399,0.499106 z m -2.44764,-0.03591 c -0.45141,0.11834 -0.58145,-0.572547 -0.0668,-0.445688 0.43271,-0.02085 0.7119,0.634538 0.0668,0.445688 z"
         id="path4498"
         inkscape:connector-curvature="0" />
    </g>
  </g>
</svg>
