<?xml version="1.0" encoding="UTF-8" standalone="no"?>
<!-- Created with Inkscape (http://www.inkscape.org/) -->

<svg
   xmlns:dc="http://purl.org/dc/elements/1.1/"
   xmlns:cc="http://creativecommons.org/ns#"
   xmlns:rdf="http://www.w3.org/1999/02/22-rdf-syntax-ns#"
   xmlns:svg="http://www.w3.org/2000/svg"
   xmlns="http://www.w3.org/2000/svg"
   xmlns:sodipodi="http://sodipodi.sourceforge.net/DTD/sodipodi-0.dtd"
   xmlns:inkscape="http://www.inkscape.org/namespaces/inkscape"
   width="400mm"
   height="300mm"
   viewBox="0 0 400 300"
   version="1.1"
   id="svg8"
   inkscape:version="0.92.3 (2405546, 2018-03-11)"
   sodipodi:docname="port_adelaide.svg">
  <defs
     id="defs2" />
  <sodipodi:namedview
     id="base"
     pagecolor="#ffffff"
     bordercolor="#666666"
     borderopacity="1.0"
     inkscape:pageopacity="0.0"
     inkscape:pageshadow="2"
     inkscape:zoom="0.59776186"
     inkscape:cx="337.01994"
     inkscape:cy="662.66005"
     inkscape:document-units="mm"
     inkscape:current-layer="g41"
     showgrid="false"
     inkscape:window-width="2560"
     inkscape:window-height="1475"
     inkscape:window-x="-13"
     inkscape:window-y="-13"
     inkscape:window-maximized="1" />
  <metadata
     id="metadata5">
    <rdf:RDF>
      <cc:Work
         rdf:about="">
        <dc:format>image/svg+xml</dc:format>
        <dc:type
           rdf:resource="http://purl.org/dc/dcmitype/StillImage" />
        <dc:title />
      </cc:Work>
    </rdf:RDF>
  </metadata>
  <g
     inkscape:label="Layer 1"
     inkscape:groupmode="layer"
     id="layer1"
     transform="translate(-187.41949,10.72484)">
    <g
       id="g41"
       transform="matrix(1.139015,0,0,1.139015,243.20403,-154.92172)">
      <path
         style="fill:#009fab;stroke-width:0.23459344"
         d="m 57.032295,257.23325 c -0.114893,0.58195 -0.277589,1.32051 -0.461,2.11473 0.224933,-0.95475 0.375845,-1.64135 0.461,-2.11473 z"
         id="path5273"
         inkscape:connector-curvature="0" />
      <g
         id="g5319"
         transform="matrix(0.93174625,0,0,0.93174625,-513.32001,-256.36962)">
        <g
           transform="translate(255.22671,340.78349)"
           id="g5209">
          <path
             inkscape:connector-curvature="0"
             style="fill:#aeb2b7;stroke-width:1.13901496"
             d="m 2117.3711,604.64062 c -5.8789,0 -7.0613,2.61947 -14.6582,32.4629 -19.9433,78.34385 -24.5438,96.79186 -24.5508,98.43945 0,0.98639 4.1873,11.14724 9.3164,22.58008 l 9.3262,20.78711 5.7734,-0.0176 c 3.1757,-0.009 6.4893,-0.47004 7.3633,-1.02344 1.7869,-1.13142 1.6237,-4.39187 -1.6074,-32.25976 -1.0704,-9.2319 -1.6584,-17.53188 -1.3086,-18.44336 0.35,-0.91149 4.3796,-2.71611 8.9551,-4.01172 4.5755,-1.29562 10.611,-3.01341 13.414,-3.81641 6.0689,-1.73855 5.7702,-0.86343 9.0606,-26.42383 1.2903,-10.02332 3.9184,-29.90136 5.8398,-44.17383 1.9214,-14.27242 3.3335,-27.56701 3.1387,-29.54492 -0.3405,-3.45605 -0.8833,-3.81084 -13.957,-9.07617 -7.4821,-3.01328 -14.7298,-5.47852 -16.1055,-5.47852 z"
             transform="matrix(0.23229135,0,0,0.23229135,-48.976124,38.80272)"
             id="path5156" />
          <path
             inkscape:connector-curvature="0"
             style="fill:#aeb2b7;stroke-width:1.13901496"
             d="m 2045.3848,613.75391 c -1.7595,0 -18.1699,11.963 -23.4942,17.12695 -1.4154,1.37284 -1.053,-1.43686 -13.1679,101.90039 -2.3592,20.12348 -2.5215,19.19145 4.6972,26.79492 2.0968,2.20856 8.4244,9.05688 14.0625,15.21875 l 10.252,11.20313 7.5332,-0.53321 c 4.1431,-0.29316 8.1166,-0.89298 8.8301,-1.33398 1.7514,-1.08243 1.1259,-2.11224 -11.7754,-19.39063 -12.0164,-16.09315 -13.5205,-18.44763 -12.6661,-19.83007 0.3139,-0.50743 3.3443,-1.54408 6.7344,-2.30274 10.0623,-2.25187 9.7297,-1.59734 13.9981,-27.57226 12.8841,-78.40404 15.0635,-92.47038 14.541,-93.83204 -0.6281,-1.63678 -15.8787,-7.44921 -19.5449,-7.44921 z"
             transform="matrix(0.23229135,0,0,0.23229135,-48.976124,38.80272)"
             id="path5154" />
          <path
             inkscape:connector-curvature="0"
             style="fill:#aeb2b7;stroke-width:1.13901496"
             d="m 1961.4199,646.58594 -10.3672,10.63476 -10.3691,10.63477 -0.6934,10.82226 c -2.9133,45.42623 -4.5284,85.79681 -3.5,87.50196 1.1224,1.86081 32.9133,24.22662 37.459,26.35351 1.2529,0.58625 3.5588,0.86421 5.125,0.61719 1.5662,-0.2471 5.0244,-0.77842 7.6836,-1.17969 5.1024,-0.76998 6.3328,-1.61884 5.0547,-3.48632 -0.4283,-0.62616 -7.081,-6.68394 -14.7832,-13.46094 -7.7023,-6.77701 -13.8168,-12.8779 -13.5898,-13.5586 0.2268,-0.68069 2.8874,-1.87048 5.914,-2.64257 3.0266,-0.7721 6.1277,-2.07808 6.8906,-2.90235 0.9225,-0.99646 2.0265,-12.56533 3.293,-34.5293 1.0476,-18.16727 2.4951,-41.37366 3.2168,-51.56835 1.1225,-15.85746 1.0738,-18.76378 -0.3301,-20.11915 -0.978,-0.94415 -5.5524,-1.8948 -11.3222,-2.35156 z"
             transform="matrix(0.23229135,0,0,0.23229135,-48.976124,38.80272)"
             id="path5150" />
          <path
             inkscape:connector-curvature="0"
             style="fill:#aeb2b7;stroke-width:1.13901496"
             d="m 1888.7012,679.38086 -12.8965,13.60156 c -7.0924,7.48048 -13.1965,14.70261 -13.5664,16.05078 -0.3698,1.34814 1.9844,19.28933 5.2324,39.86719 4.4367,28.10862 6.3961,37.9252 7.8809,39.47266 1.087,1.13284 5.7773,4.54998 10.4218,7.59375 8.9551,5.86862 11.9751,6.52373 23.0918,5 2.9066,-0.39821 5.2852,-1.32745 5.2852,-2.06446 0,-0.737 -4.3975,-5.64208 -9.7715,-10.90039 -8.9649,-8.77187 -9.6003,-9.68526 -7.7168,-11.0625 1.1291,-0.8256 4.0236,-1.81614 6.4317,-2.20117 7.153,-1.14382 7.5213,-2.60306 6.4414,-25.4414 -0.5184,-10.963 -1.1357,-29.76456 -1.3731,-41.7793 -0.2988,-15.11064 -0.8654,-22.36689 -1.8398,-23.54102 -0.7748,-0.93357 -5.0573,-2.34972 -9.5157,-3.14648 z"
             transform="matrix(0.23229135,0,0,0.23229135,-48.976124,38.80272)"
             id="path5148" />
          <path
             inkscape:connector-curvature="0"
             style="fill:#aeb2b7;stroke-width:1.13901496"
             d="m 2178.7285,735.70703 c -1.1191,0.0435 -7.1612,3.50449 -13.4258,7.68945 l -11.3886,7.60743 -1.9317,11.96093 c -3.0266,18.73794 -3.1055,18.32082 5.0625,27.12696 3.9154,4.2212 18.8909,20.62071 33.2774,36.4414 15.8092,17.3852 26.8474,28.63747 27.9043,28.44336 1.2104,-0.22213 5.8468,-12.59103 15.0605,-40.1875 7.3205,-21.92604 13.2139,-41.06161 13.0977,-42.52344 -0.1701,-2.13925 -2.434,-3.81578 -11.6016,-8.59374 -43.324,-22.57967 -54.2581,-28.03498 -56.0547,-27.96485 z"
             transform="matrix(0.23229135,0,0,0.23229135,-48.976124,38.80272)"
             id="path5146" />
          <path
             inkscape:connector-curvature="0"
             style="fill:#aeb2b7;stroke-width:1.13901496"
             d="m 2124.1328,803.85352 -18.1406,6.98242 c -9.9776,3.8397 -29.2842,11.29686 -42.9024,16.57226 -13.6182,5.2754 -25.0463,9.5918 -25.3964,9.5918 -0.35,0 -11.3968,6.21194 -24.5469,13.80469 -27.3491,15.79116 -24.9673,15.58896 -31.7949,2.69726 l -3.9864,-7.52734 2.9844,-2.49414 c 1.6407,-1.37186 9.1871,-6.85087 16.7715,-12.17578 7.5844,-5.32487 14.0698,-10.38853 14.4101,-11.25391 0.8722,-2.21717 -1.9705,-1.79655 -69.2792,10.25586 -7.4095,1.32674 -13.6951,2.99574 -13.9688,3.70898 -0.4789,1.24805 31.977,71.36213 35.5801,76.86329 1.9905,3.03907 1.4624,3.06452 23.7539,-1.08203 16.1965,-3.01277 32.5625,-6.02675 46.1738,-8.50196 l 10.8633,-1.97656 9.0684,2.90234 c 4.9877,1.59563 21.3713,6.82892 36.4062,11.63086 15.035,4.8019 27.8482,8.92254 28.4746,9.15625 2.3803,0.88798 6.5103,-0.95894 35.0098,-15.65234 23.5377,-12.13519 29.3147,-15.56154 29.3105,-17.39063 0,-1.25295 -7.2316,-12.7865 -16.0625,-25.6289 -8.831,-12.84241 -20.9359,-30.52452 -26.9004,-39.29492 -5.9645,-8.77046 -11.9653,-17.12538 -13.3359,-18.56641 z"
             transform="matrix(0.23229135,0,0,0.23229135,-48.976124,38.80272)"
             id="path5136" />
          <path
             inkscape:connector-curvature="0"
             style="fill:#aeb2b7;stroke-width:1.13901496"
             d="m 2047.1738,940.65039 c -1.3358,0 -33.0418,8.69024 -48.3359,13.24805 -8.1565,2.43074 -9.3776,3.14244 -10.0625,5.86523 -0.4288,1.70415 -3.8661,16.68012 -7.6387,33.28125 -3.7726,16.60118 -8.3491,36.59118 -10.1699,44.42188 -1.8209,7.8307 -3.7536,16.2871 -4.2969,18.793 -0.5433,2.5058 -3.9297,17.3717 -7.5234,33.0332 -12.1115,52.7809 -14.2422,62.4426 -14.2422,64.5625 0,1.8405 49.4041,93.4027 56.582,104.8652 l 2.6758,4.2715 h 105.2227 c 91.0335,0 105.3072,-0.2244 105.8574,-1.6582 0.3495,-0.9114 -0.6414,-15.1346 -2.2031,-31.6074 -1.5617,-16.4727 -3.2546,-34.3681 -3.7618,-39.7676 l -0.9218,-9.8164 -10.875,-14.1016 c -5.9812,-7.7561 -23.174,-29.9357 -38.2071,-49.2871 l -27.3339,-35.1836 -0.6934,-8.0996 c -0.3814,-4.4541 -1.1908,-17.5805 -1.7988,-29.1699 -3.4933,-66.59075 -3.4894,-66.55619 -5.4981,-68.4551 -1.0602,-1.00223 -14.2306,-7.35526 -29.2656,-14.11914 -15.035,-6.76392 -31.5935,-14.27368 -36.7988,-16.6875 -5.2054,-2.41382 -10.0261,-4.38867 -10.711,-4.38867 z"
             id="path5122"
             transform="matrix(0.23229135,0,0,0.23229135,-48.976124,38.80272)" />
        </g>
        <path
           inkscape:connector-curvature="0"
           id="path5269"
           d="m 639.51989,490.18306 c -34.91811,10e-4 -39.52341,0.0906 -39.80621,0.37339 -0.37393,0.37393 -0.41604,3.66591 -0.41604,32.42915 0,21.15674 0.0911,32.18363 0.26859,32.51534 0.14774,0.27605 0.41556,0.44838 0.59524,0.38292 0.17969,-0.0655 2.35073,-0.70278 4.82458,-1.41598 20.77585,-5.98956 25.26652,-7.33424 25.59788,-7.66561 0.16195,-0.16194 0.14821,-0.74625 -0.0381,-1.61516 -0.16058,-0.74879 -0.29218,-1.90695 -0.29218,-2.5738 0,-1.18079 0.0787,-1.29647 3.00436,-4.41898 1.65231,-1.76346 4.2809,-4.6051 5.84177,-6.31497 2.037,-2.23146 3.00834,-3.10916 3.44172,-3.10916 0.33208,0 2.06559,0.29768 3.85186,0.66148 1.78627,0.3638 3.36916,0.66149 3.51749,0.66149 0.14833,0 2.24753,-1.95559 4.66488,-4.34594 l 4.39493,-4.34593 1.71497,0.13157 c 0.94319,0.0725 2.58669,0.24243 3.65224,0.37747 3.53935,0.44853 3.3859,0.49874 6.74325,-2.20177 1.67346,-1.34608 4.171,-3.37014 5.55004,-4.49793 1.37905,-1.12778 2.75548,-2.0507 3.05881,-2.0507 0.30331,0 2.52877,0.65459 4.94526,1.45455 3.69217,1.22226 4.48573,1.40519 4.97022,1.14694 0.31709,-0.16902 2.00033,-1.29954 3.74071,-2.51256 2.01769,-1.4063 3.41709,-2.20541 3.86184,-2.20541 0.59577,0 11.34514,4.17214 15.11618,5.86717 0.82801,0.37218 1.86743,1.24884 3.12686,2.63687 1.07543,1.18524 2.09965,2.07928 2.38234,2.07928 0.60363,0 11.53213,-3.09936 12.21254,-3.4635 0.26656,-0.14266 0.485,-0.34552 0.485,-0.45052 0,-0.10499 -2.2068,-2.62491 -4.90398,-5.59994 -2.75306,-3.03666 -4.86975,-5.58895 -4.82594,-5.81908 0.0861,-0.45205 -0.58186,-0.25111 29.57359,-8.89376 22.9821,-6.58677 20.6863,-5.85569 20.58637,-6.55679 l -0.0812,-0.56984 -85.37479,-0.0667 c -19.33817,-0.0151 -34.3457,-0.0241 -45.98506,-0.0236 z"
           style="fill:#009fab;stroke-width:0.26458332" />
        <path
           inkscape:connector-curvature="0"
           id="path43-2-5"
           d="m 587.77879,684.27976 c -0.0688,-0.18209 -0.15441,-20.27404 -0.19027,-44.64877 l -0.0652,-44.31771 -1.71979,0.0565 c -1.58009,0.0519 -2.7061,0.15831 -9.26041,0.87485 -1.23693,0.13522 -4.51115,0.48355 -7.27604,0.77405 -6.63744,0.69738 -17.12867,1.81385 -20.10834,2.13992 -3.36882,0.36865 -11.68509,1.26081 -14.81667,1.58952 -1.4552,0.15275 -3.65786,0.38837 -4.89479,0.52359 -1.23692,0.13523 -4.51114,0.48417 -7.27604,0.77543 -2.76489,0.29127 -7.88458,0.83103 -11.37708,1.19948 -3.4925,0.36846 -7.21807,0.78801 -8.27904,0.93234 -1.06097,0.14433 -2.43019,0.25765 -3.04271,0.25182 l -1.11367,-0.0106 0.75926,-0.41132 c 0.41759,-0.22622 2.08446,-0.86772 3.70416,-1.42554 1.61971,-0.55782 5.92148,-2.04339 9.5595,-3.30126 3.63802,-1.25788 8.28146,-2.86232 10.31875,-3.56543 2.03729,-0.70311 8.76432,-3.02745 14.94896,-5.16519 6.18463,-2.13775 14.63807,-5.05775 18.78541,-6.48888 6.98062,-2.40882 17.05809,-5.90494 22.09271,-7.66449 2.97724,-1.04052 3.04271,-1.07292 3.04271,-1.50595 0,-0.21365 -1.96946,-2.6019 -4.37658,-5.30722 -2.4292,-2.73014 -4.34146,-5.1011 -4.29766,-5.32855 0.079,-0.41019 0.37155,-0.50668 9.73257,-3.20985 2.11006,-0.60932 4.10413,-1.27718 4.43128,-1.48414 l 0.59481,-0.37629 0.0666,-69.5135 0.0666,-69.51351 h 97.49897 97.49896 l 0.13229,33.73075 c 0.12124,30.91398 0.16835,33.73772 0.56389,33.81388 0.23738,0.0457 7.91691,-2.07004 17.06561,-4.70167 9.14875,-2.63164 21.24586,-6.11215 26.88252,-7.73448 5.63669,-1.62234 10.3276,-2.87059 10.42428,-2.7739 0.0967,0.0967 -0.3321,2.29128 -0.95288,4.87686 -0.6208,2.58559 -1.717,7.14184 -2.43599,10.12502 -0.71899,2.98318 -1.85055,7.68615 -2.5146,10.45104 -0.66401,2.7649 -2.13014,8.83708 -3.25798,13.49375 -1.12787,4.65667 -2.554,10.56231 -3.16917,13.12366 -0.61518,2.56134 -1.20478,4.79658 -1.31024,4.9672 -0.10544,0.17061 -1.19498,0.42699 -2.4212,0.56971 -3.39515,0.39518 -14.77271,1.67725 -26.83571,3.02396 -10.37293,1.15803 -12.03853,1.42832 -12.03853,1.95363 0,0.35866 0.87728,1.39263 8.99583,10.60263 9.52892,10.80997 8.86673,9.98581 8.27662,10.3015 -0.25927,0.13869 -1.72159,0.38261 -3.24955,0.54205 -1.52794,0.15943 -3.79014,0.40278 -5.02707,0.54078 -1.23692,0.138 -3.49912,0.38174 -5.02708,0.54164 -1.52797,0.15991 -3.04578,0.40193 -3.3729,0.53784 l -0.59478,0.2471 -0.0667,63.0429 -0.0667,63.0429 -97.44097,0.0665 c -77.81447,0.0531 -97.46618,-1.9e-4 -97.56606,-0.26458 z m 23.42474,-11.30566 c 0.34942,-0.22089 0.40499,-5.01006 0.46472,-40.04652 0.0608,-35.6717 0.0254,-39.83091 -0.34215,-40.13593 -0.42326,-0.35126 -4.04739,-0.11307 -9.64757,0.63408 l -2.24895,0.30005 -0.067,39.53906 c -0.0533,31.45659 7e-4,39.5821 0.26458,39.74958 0.47131,0.29924 11.09775,0.26223 11.5764,-0.0403 z m 22.96584,-0.0585 c 0.4735,-0.4735 0.46041,-82.31538 -0.0132,-82.70287 -0.2267,-0.18547 -1.32938,-0.15378 -3.50573,0.10077 -1.74625,0.20424 -4.28969,0.47484 -5.65208,0.60132 -1.60466,0.14898 -2.55838,0.35834 -2.70793,0.59444 -0.38181,0.6028 -0.30421,81.02357 0.0786,81.40634 0.22689,0.22688 1.91089,0.3175 5.90022,0.3175 3.98933,0 5.67332,-0.0906 5.90021,-0.3175 z m 18.53086,-0.31477 c 0.0879,-0.45787 -6.52146,-18.56315 -7.10971,-19.47605 -0.64434,-0.99998 -0.77692,0.67004 -0.78085,9.83684 -0.004,8.30344 0.0469,9.49089 0.41923,9.8632 0.35322,0.35323 0.9985,0.41109 3.89933,0.34963 3.16627,-0.0671 3.48462,-0.11819 3.572,-0.57362 z m 95.5257,0.27368 c 0.2188,-0.26363 0.27992,-14.96037 0.23086,-55.49636 l -0.0668,-55.13776 -0.97147,-0.0809 c -1.04031,-0.0866 -9.90095,0.88064 -10.63,1.1604 -0.4043,0.15514 -0.43708,4.01324 -0.43708,51.44742 V 666.047 l 0.66148,3.05937 c 0.36379,1.68268 0.66147,3.11243 0.66147,3.17729 0,0.0648 0.18709,0.30497 0.41575,0.53366 0.57172,0.57172 9.66618,0.62303 10.13578,0.0572 z m 23.0588,-0.32465 c 0.28189,-0.74143 0.36821,-111.43337 0.0877,-112.49228 -0.12534,-0.47315 -0.34667,-0.59531 -1.07869,-0.59531 -1.76237,0 -10.52886,1.11745 -10.85739,1.38398 -0.47411,0.38462 -0.48723,111.59534 -0.0132,112.06935 0.22709,0.22709 1.92409,0.3175 5.95966,0.3175 h 5.64218 z m -50.45258,0.0337 c 0.0812,-0.21171 -0.14908,-3.51571 -0.51185,-7.3422 -0.36276,-3.82646 -0.75597,-7.98341 -0.87378,-9.23764 l -0.2142,-2.28043 -2.52614,-3.27584 c -1.38937,-1.80168 -5.38326,-6.95366 -8.87531,-11.44881 l -6.34918,-8.173 -0.16113,-1.88116 c -0.0886,-1.03465 -0.27666,-4.08383 -0.41789,-6.77596 -0.81145,-15.46845 -0.8108,-15.46032 -1.27739,-15.90142 -0.24629,-0.23281 -3.30528,-1.70881 -6.79779,-3.28 -3.4925,-1.5712 -7.33931,-3.31548 -8.54847,-3.87619 -1.20916,-0.56071 -2.32864,-1.01948 -2.48772,-1.01948 -0.31029,0 -7.67555,2.01862 -11.22823,3.07736 -1.89469,0.56464 -2.17806,0.7298 -2.33717,1.36228 -0.0996,0.39586 -0.89808,3.8749 -1.77442,7.7312 -0.87635,3.8563 -1.93942,8.49974 -2.36238,10.31875 -0.42297,1.81901 -0.87229,3.78354 -0.99849,4.36562 -0.12621,0.58209 -0.91249,4.0349 -1.74729,7.67292 -2.81339,12.26056 -3.30852,14.50497 -3.30852,14.9974 0,0.42754 11.47627,21.69675 13.14365,24.35939 l 0.62132,0.99216 h 24.44232 c 21.14631,0 24.46226,-0.0519 24.59006,-0.38495 z m -73.03392,-38.3765 c 1.09231,-2.91042 3.49486,-9.28026 5.33899,-14.15521 7.44893,-19.6912 6.87311,-18.04079 6.412,-18.37796 -0.23072,-0.1687 -1.62255,-0.64273 -3.09296,-1.05339 -1.60338,-0.4478 -2.76245,-0.91804 -2.89577,-1.17484 -0.12226,-0.2355 -1.97246,-5.6967 -4.11156,-12.136 -2.13909,-6.43929 -3.98666,-11.70781 -4.10568,-11.70781 -0.11904,0 -0.2887,0.18833 -0.37702,0.41852 -0.215,0.56025 -0.20726,63.1812 0.008,63.74182 0.31107,0.81062 0.78452,-0.12067 2.82413,-5.55513 z m 77.90513,-18.88137 c 0.0588,-21.24304 0.0174,-24.4128 -0.32081,-24.54257 -0.39455,-0.1514 -13.40513,10.87795 -13.8811,11.7673 -0.12993,0.24279 -0.19324,0.73783 -0.14066,1.10008 0.13275,0.91488 0.53949,3.511 1.16024,7.40552 1.01225,6.35092 1.33109,8.36485 2.00719,12.67877 0.37447,2.38942 0.75747,4.47302 0.85109,4.63021 0.64938,1.09025 9.73327,11.52863 9.96535,11.45128 0.20837,-0.0695 0.31037,-7.0337 0.3587,-24.49059 z m -19.18711,-24.96825 c 5.46762,-2.8189 6.80937,-3.61507 6.80839,-4.03995 -7e-4,-0.29105 -1.67958,-2.96995 -3.73092,-5.95313 -2.05136,-2.98318 -4.86333,-7.09083 -6.24883,-9.12812 -1.3855,-2.0373 -2.7796,-3.97805 -3.09799,-4.31279 l -0.57887,-0.60861 -4.21401,1.6217 c -2.31771,0.89193 -6.80225,2.62433 -9.96564,3.84976 -3.16339,1.22543 -5.81815,2.22806 -5.89948,2.22806 -0.0813,0 -2.64714,1.44306 -5.7018,3.20679 -6.35296,3.66815 -5.79963,3.6212 -7.38564,0.62657 l -0.92604,-1.74852 0.69291,-0.5794 c 0.38111,-0.31867 2.13438,-1.59143 3.89617,-2.82836 1.76179,-1.23692 3.26794,-2.41342 3.34701,-2.61444 0.20259,-0.51503 -0.45731,-0.41733 -16.09255,2.38234 -1.72115,0.30819 -3.18139,0.6959 -3.24496,0.86158 -0.11125,0.28991 7.42809,16.57707 8.26506,17.85494 0.46238,0.70595 0.3395,0.71155 5.51761,-0.25166 3.7623,-0.69984 7.56396,-1.39979 10.72574,-1.97476 l 2.52366,-0.45894 2.10655,0.67393 c 1.1586,0.37065 4.96405,1.58655 8.45654,2.702 3.4925,1.11544 6.46906,2.0725 6.61458,2.12679 0.55293,0.20627 1.51232,-0.22263 8.13251,-3.63578 z m -143.73146,-0.079 c 9.08227,-1.17509 21.76124,-2.78579 23.94721,-3.04219 1.16549,-0.13671 3.90392,-0.48601 6.08541,-0.77624 4.86349,-0.64703 11.64312,-1.51356 23.94238,-3.06017 12.16243,-1.52941 11.37708,-1.3912 11.37708,-2.00209 0,-0.29163 -2.1387,-2.8225 -5.02708,-5.94888 -2.76489,-2.99273 -5.02708,-5.54956 -5.02708,-5.68185 0,-0.33794 0.58635,-0.44428 5.82082,-1.05569 7.9349,-0.92684 10.09219,-1.24376 10.37221,-1.52379 0.18482,-0.18482 -0.0387,-2.02289 -0.70349,-5.78404 -1.13966,-6.44814 -1.35065,-7.23293 -1.94461,-7.23293 -0.24031,0 -2.28491,0.53592 -4.54354,1.19094 -2.25864,0.65501 -12.26238,3.54696 -22.23057,6.42655 -15.70946,4.53813 -18.13284,5.30473 -18.19064,5.75438 -0.0455,0.35378 1.36621,2.06864 4.43889,5.3922 2.47807,2.6804 4.46371,4.99905 4.41253,5.15257 -0.0512,0.15351 -2.76305,1.0917 -6.02639,2.08486 -3.26333,0.99315 -10.04099,3.05512 -15.06147,4.58215 -16.69136,5.07687 -18.78542,5.7422 -18.78542,5.96863 0,0.36659 1.68637,0.26168 7.14376,-0.44441 z m 162.23869,-21.4235 c 1.70048,-5.09323 3.0697,-9.53825 3.04269,-9.87782 -0.0395,-0.49693 -0.56537,-0.88648 -2.69492,-1.99636 -10.06379,-5.24506 -12.60378,-6.51221 -13.02111,-6.49592 -0.25995,0.0101 -1.66327,0.81381 -3.11848,1.78594 l -2.64582,1.76749 -0.44872,2.77812 c -0.70305,4.35266 -0.72106,4.25609 1.17631,6.30168 0.90952,0.98055 4.38789,4.78964 7.72975,8.46465 3.67234,4.03843 6.23679,6.65232 6.48229,6.60723 0.28118,-0.0516 1.35774,-2.92459 3.49801,-9.33501 z m -75.35999,-3.21097 c 0.67516,-0.0925 1.22756,-0.30833 1.22756,-0.47953 0,-0.1712 -1.02137,-1.31065 -2.2697,-2.53211 -2.08247,-2.03763 -2.23037,-2.2496 -1.79284,-2.56952 0.26227,-0.19178 0.93453,-0.42188 1.49389,-0.51132 1.6616,-0.2657 1.74751,-0.60495 1.49665,-5.9101 -0.12041,-2.54661 -0.26405,-6.91369 -0.3192,-9.70461 -0.0694,-3.51007 -0.20114,-5.19595 -0.42749,-5.46869 -0.17998,-0.21686 -1.17456,-0.54571 -2.21021,-0.73079 l -1.88296,-0.3365 -2.99546,3.15936 c -1.64749,1.73765 -3.06574,3.41558 -3.15166,3.72875 -0.0859,0.31316 0.46109,4.48035 1.21559,9.26041 1.0306,6.52939 1.486,8.81003 1.83089,9.16949 0.25251,0.26315 1.34182,1.05693 2.42069,1.76397 2.08019,1.36323 2.78193,1.51514 5.36425,1.16119 z m 18.09336,-2.08956 c 1.18523,-0.17886 1.47143,-0.37622 1.17455,-0.81002 -0.0995,-0.14545 -1.64485,-1.55247 -3.43401,-3.12671 -1.78917,-1.57424 -3.20991,-2.99163 -3.1572,-3.14975 0.0527,-0.15812 0.67106,-0.43424 1.37411,-0.61359 0.70306,-0.17935 1.4233,-0.48274 1.60053,-0.67421 0.21428,-0.23147 0.47049,-2.91899 0.7647,-8.02103 0.24334,-4.2201 0.5796,-9.61048 0.74724,-11.97862 0.26075,-3.68355 0.24971,-4.35889 -0.0764,-4.67373 -0.22718,-0.21932 -1.28988,-0.43996 -2.63016,-0.54606 l -2.24896,-0.17805 -2.40836,2.47052 -2.40836,2.47053 -0.16121,2.51354 c -0.67675,10.55212 -1.0518,19.92982 -0.81291,20.32591 0.26071,0.43225 7.64533,5.62772 8.70126,6.12178 0.29104,0.13618 0.82682,0.20066 1.19063,0.14328 0.3638,-0.0574 1.16684,-0.18058 1.78455,-0.27379 z m 15.64258,-1.82137 c 0.40684,-0.25144 0.26177,-0.49033 -2.73511,-4.50395 -2.7913,-3.7383 -3.14085,-4.28556 -2.94238,-4.60669 0.0729,-0.11787 0.77676,-0.3585 1.56426,-0.53473 2.33739,-0.52309 2.26023,-0.37111 3.25174,-6.40486 2.99287,-18.21258 3.49926,-21.48006 3.37788,-21.79636 -0.14591,-0.38021 -3.68845,-1.73047 -4.54008,-1.73047 -0.4087,0 -4.22099,2.77911 -5.45777,3.97865 -0.32879,0.3189 -0.24442,-0.33404 -3.05862,23.67031 -0.54802,4.67451 -0.58593,4.45822 1.09091,6.22444 0.48707,0.51303 1.95714,2.10388 3.26683,3.53523 l 2.38125,2.60245 1.74986,-0.12388 c 0.96242,-0.0681 1.88549,-0.2077 2.05123,-0.31014 z m 12.97218,-1.4543 c 0.41507,-0.26282 0.37733,-1.02024 -0.37324,-7.49371 -0.24864,-2.14449 -0.3856,-4.07231 -0.30434,-4.28404 0.0813,-0.21173 1.01733,-0.63121 2.08017,-0.93217 1.06286,-0.30096 2.46521,-0.69982 3.11634,-0.88635 1.40974,-0.40385 1.34002,-0.20049 2.10435,-6.13795 0.29973,-2.32833 0.91014,-6.94591 1.35646,-10.26128 0.44633,-3.31536 0.77449,-6.40384 0.72924,-6.86329 -0.0791,-0.80281 -0.20533,-0.8849 -3.24224,-2.10799 -1.73801,-0.69996 -3.42144,-1.27265 -3.74101,-1.27265 -1.36562,0 -1.6403,0.60826 -3.405,7.54063 -4.63265,18.1986 -5.70145,22.48402 -5.70307,22.86674 -9.3e-4,0.22913 0.97303,2.58948 2.16447,5.24523 l 2.16624,4.82865 1.34126,-0.004 c 0.73769,-0.002 1.50735,-0.10923 1.71037,-0.23778 z m -91.38577,-5.81056 c 20.77584,-5.98956 25.26654,-7.33438 25.59791,-7.66575 0.16194,-0.16194 0.14811,-0.74631 -0.0382,-1.61521 -0.16059,-0.7488 -0.29199,-1.90707 -0.29199,-2.57392 0,-1.18079 0.0785,-1.29624 3.0042,-4.41875 1.65231,-1.76346 4.28126,-4.60527 5.84213,-6.31514 2.037,-2.23146 3.00832,-3.10885 3.44171,-3.10885 0.33207,0 2.06528,0.29766 3.85156,0.66146 1.78627,0.3638 3.36913,0.66146 3.51746,0.66146 0.14833,0 2.24752,-1.95574 4.66487,-4.34609 l 4.39517,-4.34609 1.7149,0.13182 c 0.94319,0.0725 2.58671,0.2423 3.65226,0.37734 3.53935,0.44853 3.3859,0.49864 6.74325,-2.20188 1.67346,-1.34607 4.17097,-3.37013 5.55001,-4.49792 1.37905,-1.12778 2.75553,-2.05052 3.05885,-2.05052 0.30331,0 2.52861,0.65451 4.94509,1.45447 3.69217,1.22226 4.48566,1.4054 4.97015,1.14715 0.31708,-0.16902 2.00047,-1.29978 3.74085,-2.5128 2.01769,-1.4063 3.41708,-2.20548 3.86183,-2.20548 0.59576,0 11.34517,4.17249 15.11622,5.86752 0.82801,0.37218 1.86737,1.24862 3.1268,2.63665 1.07543,1.18524 2.09973,2.07916 2.38242,2.07916 0.60363,0 11.53229,-3.09926 12.21271,-3.4634 0.26655,-0.14266 0.48466,-0.34529 0.48466,-0.45028 0,-0.105 -2.2068,-2.62501 -4.90397,-5.60004 -2.75307,-3.03666 -4.86974,-5.58893 -4.82593,-5.81906 0.0861,-0.45205 -0.58181,-0.2512 29.57364,-8.89386 22.98211,-6.58676 20.68635,-5.85556 20.58642,-6.55666 l -0.0812,-0.56983 -85.37496,-0.0666 c -77.35271,-0.0603 -85.41408,-0.0274 -85.79114,0.34963 -0.37394,0.37393 -0.41619,3.66602 -0.41619,32.42926 0,21.15674 0.0911,32.18329 0.26862,32.515 0.14774,0.27605 0.41563,0.44836 0.59531,0.3829 0.17969,-0.0655 2.35076,-0.70254 4.82463,-1.41574 z m 141.94895,0.3722 c 4.72943,-0.50584 9.67052,-1.04551 10.9802,-1.19926 1.30968,-0.15375 7.32236,-0.81109 13.36147,-1.46076 14.21625,-1.52935 13.22916,-1.38239 13.22916,-1.96951 0,-0.26824 -3.93174,-4.98556 -8.73725,-10.48294 -4.8055,-5.49738 -8.69506,-10.12241 -8.64347,-10.27785 0.10038,-0.30233 0.8219,-0.41558 6.79738,-1.06683 2.11007,-0.22997 4.78897,-0.52894 5.95314,-0.66438 4.72859,-0.55015 7.76162,-0.88752 21.56354,-2.39858 7.93089,-0.86828 14.74181,-1.64608 15.13541,-1.72843 0.39357,-0.0823 0.77678,-0.34981 0.85155,-0.59436 0.13009,-0.42545 2.45758,-10.01042 4.12345,-16.98109 0.43474,-1.81901 1.44646,-6.04573 2.2483,-9.39271 3.02139,-12.61148 3.08216,-12.89723 2.80337,-13.17604 -0.18398,-0.18397 -4.89891,1.06151 -14.76672,3.90075 -7.97303,2.29406 -18.18734,5.22561 -22.69849,6.51454 -4.51114,1.28894 -8.55928,2.46098 -8.99583,2.60453 -0.85478,0.28108 -26.65308,7.71937 -29.50105,8.50588 -6.52429,1.8018 -15.44537,4.47635 -15.66559,4.69656 -0.154,0.15402 -0.17003,0.42778 -0.0384,0.65628 0.12423,0.21562 2.2499,2.61593 4.72376,5.33402 2.47383,2.7181 4.4979,5.08271 4.4979,5.2547 0,0.3686 -0.65724,0.57881 -17.19791,5.50016 -6.98499,2.07825 -12.85109,3.89162 -13.03578,4.0297 -0.2572,0.19231 -0.31913,1.58942 -0.26458,5.96917 l 0.0712,5.71809 5.15937,2.65646 c 14.95406,7.69956 14.89973,7.66901 15.81742,8.88901 1.74506,2.31986 1.82423,2.38371 2.76157,2.22737 0.47731,-0.0796 4.73742,-0.55863 9.46685,-1.06448 z m -135.46666,-84.93961 0.13229,-6.61459 5.08172,-0.13229 5.08171,-0.13229 2.92193,-2.731 2.92193,-2.731 v -9.24528 -9.24527 l -0.85991,-0.88909 c -0.47294,-0.48899 -1.77777,-1.7387 -2.89964,-2.77712 l -2.03977,-1.88803 -11.18941,0.069 -11.1894,0.069 -0.0684,21.16667 c -0.0376,11.64165 -0.0107,21.31777 0.0598,21.50246 0.0994,0.26047 1.45041,0.31983 6.02148,0.26459 l 5.89334,-0.0712 z m 0.32427,-16.75855 c -0.2568,-0.16297 -0.31987,-1.3131 -0.26458,-4.82459 l 0.0726,-4.6106 h 1.85208 1.85208 l 0.0726,4.6106 c 0.0553,3.51149 -0.008,4.66162 -0.26458,4.82459 -0.18545,0.11769 -0.93249,0.21399 -1.6601,0.21399 -0.7276,0 -1.47464,-0.0963 -1.66009,-0.21399 z m 46.37469,20.75647 2.91041,-2.73711 0.0708,-14.65332 c 0.0389,-8.05933 -0.0206,-15.30856 -0.13229,-16.10941 -0.19843,-1.4229 -0.26748,-1.51789 -3.02892,-4.16719 l -2.82586,-2.71109 -8.15436,0.007 -8.15434,0.007 -2.97656,2.8526 -2.97657,2.85261 v 15.90371 15.90373 l 2.97425,2.79975 2.97426,2.79975 8.2044,-0.006 8.20439,-0.006 2.91042,-2.73711 z m -12.9758,-7.37136 c -0.0698,-0.1819 -0.0958,-5.45041 -0.0578,-11.7078 l 0.0691,-11.37709 1.58012,-0.0811 c 1.26136,-0.0647 1.64832,0.0122 1.91823,0.3813 0.26148,0.35761 0.33811,2.93451 0.33811,11.3704 0,5.9994 -0.0723,11.09633 -0.1606,11.32651 -0.20521,0.53476 -3.4856,0.61288 -3.68707,0.0878 z m 38.97432,9.78958 c 0.22396,-0.278 0.64788,-3.39384 2.33976,-17.19762 0.0847,-0.69106 0.24884,-1.31509 0.36477,-1.38674 0.2895,-0.17892 0.3826,0.40979 1.58701,10.03549 0.58156,4.64783 1.15603,8.54926 1.27661,8.66984 0.12058,0.12056 3.18244,0.18732 6.80415,0.14836 l 6.5849,-0.0709 0.19086,-0.92605 c 0.10497,-0.50932 0.38112,-2.47385 0.61369,-4.36563 0.23254,-1.89177 0.53214,-4.21348 0.66575,-5.15937 0.43403,-3.07269 0.7914,-5.77565 2.25633,-17.06563 0.79304,-6.11186 1.5725,-11.9736 1.73211,-13.02608 0.15961,-1.05247 0.21532,-2.03474 0.12382,-2.18281 -0.10385,-0.16803 -2.1517,-0.26922 -5.44811,-0.26922 -5.23052,0 -5.28404,0.006 -5.51947,0.59531 -0.13077,0.32742 -0.5501,3.86953 -0.93185,7.87136 -0.38176,4.00181 -0.76085,7.73393 -0.84246,8.29359 -0.33729,2.31333 -0.64312,0.56887 -2.08017,-11.86547 -0.23546,-2.03729 -0.53702,-3.97206 -0.67013,-4.29948 -0.24091,-0.59251 -0.27003,-0.59531 -6.18522,-0.59531 -3.80239,0 -6.00403,0.0984 -6.11207,0.27325 -0.0929,0.15028 -0.63905,3.63286 -1.2137,7.73906 -1.33472,9.53722 -1.27458,9.18561 -1.57105,9.18561 -0.13893,0 -0.2526,-0.12779 -0.2526,-0.28395 0,-1.55708 -1.7049,-16.33487 -1.91383,-16.58871 -0.21042,-0.25567 -1.51962,-0.31905 -5.46529,-0.26459 l -5.18858,0.0716 -0.0961,0.66146 c -0.088,0.60581 0.0174,1.55247 0.78064,7.01146 0.42217,3.01965 2.35623,17.56282 2.62137,19.71145 0.2259,1.83063 0.36495,2.88776 1.06149,8.06979 0.13692,1.01864 0.38323,2.92364 0.54736,4.23333 0.16413,1.30969 0.40956,2.58962 0.54539,2.84427 0.22483,0.42153 0.82413,0.46303 6.68755,0.46303 4.83398,0 6.50704,-0.0825 6.70702,-0.33074 z m 53.34816,-0.0878 c 0.32482,-0.84649 0.1765,-9.77772 -0.17013,-10.24383 -0.28943,-0.38922 -1.05741,-0.45333 -6.15156,-0.51358 l -5.82083,-0.0689 -0.0757,-2.5797 -0.0757,-2.57968 h 5.24237 c 4.31655,0 5.34623,-0.0727 5.83042,-0.41187 0.57025,-0.39942 0.58805,-0.55447 0.58805,-5.12699 0,-3.59495 -0.0834,-4.78432 -0.35107,-5.00646 -0.22355,-0.18551 -2.31387,-0.31741 -5.75469,-0.36312 l -5.40364,-0.0718 v -2.51354 -2.51355 l 6.08542,-0.13229 6.08542,-0.13228 v -5.15929 -5.15937 h -12.17088 -12.17084 l -0.0684,21.16667 c -0.0376,11.64165 -0.0116,21.31548 0.0578,21.49738 0.0984,0.25788 2.77361,0.33073 12.14474,0.33073 10.71528,0 12.03592,-0.0454 12.17913,-0.41851 z m 17.5586,-7.91585 c 0.0606,-7.33459 0.11496,-8.23707 0.5136,-8.53282 0.60061,-0.4456 3.10836,-0.42945 3.48337,0.0224 0.19696,0.23732 0.31606,3.03615 0.36312,8.53282 l 0.07,8.17964 h 5.95314 5.95309 l 0.0697,-8.75893 0.0697,-8.75892 -2.12019,-2.02562 c -1.16611,-1.11408 -2.1202,-2.17598 -2.1202,-2.35978 0,-0.18378 0.95251,-1.28108 2.11669,-2.43842 l 2.11664,-2.10424 0.003,-5.43017 0.003,-5.43016 -2.91689,-2.84427 -2.91688,-2.84427 H 754.6577 c -8.24604,0 -11.13632,0.0807 -11.3731,0.3175 -0.2416,0.24156 -0.31752,5.29861 -0.31752,21.14502 0,11.45515 0.0731,21.0181 0.16251,21.25103 0.14337,0.37365 0.85179,0.41513 6.01925,0.35236 l 5.85646,-0.0711 z m 0.25137,-18.55445 c -0.10279,-0.10278 -0.18686,-1.5916 -0.18686,-3.30847 0,-2.81543 0.0502,-3.14845 0.51179,-3.39548 0.60556,-0.3241 2.91411,-0.35842 3.39932,-0.0505 0.25302,0.16056 0.32026,1.05025 0.26458,3.50167 l -0.0747,3.28642 -1.86365,0.0766 c -1.02499,0.0421 -1.94772,-0.007 -2.05051,-0.11025 z"
           style="fill:#070808;stroke-width:0.26458332" />
      </g>
    </g>
  </g>
</svg>
